<?xml version="1.0"?>
<svg xmlns="http://www.w3.org/2000/svg" version="1.1" width="1180.48999023438pt" height="1440.71118164063pt" viewBox="-300.235777625693 5.58070850372314 1180.48994431613 1440.71117075122" preserveAspectRatio="none" xmlns:xlink="http://www.w3.org/1999/xlink">
  <defs>
    <linearGradient id="Gradient0" x1="0.00" y1="0.00" x2="0.71" y2="0.71">
      <stop offset="5%" stop-color="#FFFFFF" stop-opacity="1" />
      <stop offset="95%" stop-color="#C6CEDA" stop-opacity="1" />
    </linearGradient>
    <linearGradient id="Gradient1" x1="0.00" y1="0.00" x2="0.71" y2="0.71">
      <stop offset="5%" stop-color="#FFFFFF" stop-opacity="1" />
      <stop offset="95%" stop-color="#C6CEDA" stop-opacity="1" />
    </linearGradient>
    <linearGradient id="Gradient2" x1="0.00" y1="0.00" x2="0.71" y2="0.71">
      <stop offset="5%" stop-color="#FFFFFF" stop-opacity="1" />
      <stop offset="95%" stop-color="#C6CEDA" stop-opacity="1" />
    </linearGradient>
    <linearGradient id="Gradient3" x1="0.00" y1="0.00" x2="0.71" y2="0.71">
      <stop offset="5%" stop-color="#FFFFFF" stop-opacity="1" />
      <stop offset="95%" stop-color="#C6CEDA" stop-opacity="1" />
    </linearGradient>
  </defs>
  <path d="M117.600540161133,825.711975097656 C117.600540161133,886.5 117.600540161133,886.5 114.790672302246,886.5 C111.980804443359,886.5 111.980804443359,886.5 111.980804443359,886.947143554688 " stroke="#6E6E6E" fill="none" stroke-width="1" stroke-opacity="1" />
  <path d="M111.980796813965,892.647155761719 L109.760795593262,886.947143554688 L114.200790405273,886.947143554688 L111.980796813965,892.647155761719 " stroke="none" fill="#6E6E6E" fill-rule="evenodd" stroke-width="0" fill-opacity="1" />
  <path d="M111.980796813965,892.647155761719 L109.760795593262,886.947143554688 L114.200790405273,886.947143554688 L111.980796813965,892.647155761719 " stroke="#6E6E6E" fill="none" stroke-width="1" stroke-opacity="1" />
  <path d="M477.182098388672,746.661254882813 C477.182098388672,1294.5 477.182098388672,1294.5 453.6640625,1294.5 C430.146057128906,1294.5 430.146057128906,1294.5 430.146057128906,1295.83264160156 " stroke="#6E6E6E" fill="none" stroke-width="1" stroke-opacity="1" stroke-dasharray="3,1,1,1,1,1" />
  <path d="M430.146057128906,1301.53271484375 L427.926055908203,1295.83264160156 L432.366027832031,1295.83264160156 L430.146057128906,1301.53271484375 " stroke="none" fill="#6E6E6E" fill-rule="evenodd" stroke-width="0" fill-opacity="1" />
  <path d="M430.146057128906,1301.53271484375 L427.926055908203,1295.83264160156 L432.366027832031,1295.83264160156 L430.146057128906,1301.53271484375 " stroke="#6E6E6E" fill="none" stroke-width="1" stroke-opacity="1" />
  <path d="M397.112670898438,949.666809082031 C397.112670898438,1294.5 397.112670898438,1294.5 451.712127685547,1294.5 C506.311553955078,1294.5 506.311553955078,1294.5 506.311553955078,1295.83264160156 " stroke="#6E6E6E" fill="none" stroke-width="1" stroke-opacity="1" stroke-dasharray="3,1,1,1,1,1" />
  <path d="M506.311553955078,1301.53271484375 L504.091552734375,1295.83264160156 L508.531524658203,1295.83264160156 L506.311553955078,1301.53271484375 " stroke="none" fill="#6E6E6E" fill-rule="evenodd" stroke-width="0" fill-opacity="1" />
  <path d="M506.311553955078,1301.53271484375 L504.091552734375,1295.83264160156 L508.531524658203,1295.83264160156 L506.311553955078,1301.53271484375 " stroke="#6E6E6E" fill="none" stroke-width="1" stroke-opacity="1" />
  <path d="M281.997100830078,1190.39599609375 C281.997100830078,1249.5 281.997100830078,1249.5 283.910675048828,1249.5 C285.824249267578,1249.5 285.824249267578,1249.5 285.824249267578,1248.43310546875 " stroke="#6E6E6E" fill="none" stroke-width="1" stroke-opacity="1" stroke-dasharray="3,1,1,1,1,1" />
  <path d="M285.824249267578,1254.13317871094 L283.604248046875,1248.43310546875 L288.044219970703,1248.43310546875 L285.824249267578,1254.13317871094 " stroke="none" fill="#6E6E6E" fill-rule="evenodd" stroke-width="0" fill-opacity="1" />
  <path d="M285.824249267578,1254.13317871094 L283.604248046875,1248.43310546875 L288.044219970703,1248.43310546875 L285.824249267578,1254.13317871094 " stroke="#6E6E6E" fill="none" stroke-width="1" stroke-opacity="1" />
  <path d="M246.114135742188,176.169235229492 C436.5,176.169235229492 436.5,176.169235229492 436.5,199.769226074219 C436.5,223.369216918945 436.5,223.369216918945 436.348937988281,223.369216918945 " stroke="#6E6E6E" fill="none" stroke-width="1" stroke-opacity="1" />
  <path d="M442.048950195313,223.369201660156 L436.348937988281,225.589202880859 L436.348937988281,221.149215698242 L442.048950195313,223.369201660156 " stroke="none" fill="#6E6E6E" fill-rule="evenodd" stroke-width="0" fill-opacity="1" />
  <path d="M442.048950195313,223.369201660156 L436.348937988281,225.589202880859 L436.348937988281,221.149215698242 L442.048950195313,223.369201660156 " stroke="#6E6E6E" fill="none" stroke-width="1" stroke-opacity="1" />
  <path d="M479.173950195313,191.4375 C479.173950195313,200.0625 479.173950195313,200.0625 479.173950195313,202.987487792969 " stroke="#6E6E6E" fill="none" stroke-width="1" stroke-opacity="1" />
  <path d="M479.173950195313,208.6875 L476.953948974609,202.987487792969 L481.393920898438,202.987487792969 L479.173950195313,208.6875 " stroke="none" fill="#6E6E6E" fill-rule="evenodd" stroke-width="0" fill-opacity="1" />
  <path d="M479.173950195313,208.6875 L476.953948974609,202.987487792969 L481.393920898438,202.987487792969 L479.173950195313,208.6875 " stroke="#6E6E6E" fill="none" stroke-width="1" stroke-opacity="1" />
  <path d="M479.173950195313,255.9375 C479.173950195313,264.5625 479.173950195313,264.5625 479.173950195313,267.487487792969 " stroke="#6E6E6E" fill="none" stroke-width="1" stroke-opacity="1" />
  <path d="M479.173950195313,273.1875 L476.953948974609,267.487487792969 L481.393920898438,267.487487792969 L479.173950195313,273.1875 " stroke="none" fill="#6E6E6E" fill-rule="evenodd" stroke-width="0" fill-opacity="1" />
  <path d="M479.173950195313,273.1875 L476.953948974609,267.487487792969 L481.393920898438,267.487487792969 L479.173950195313,273.1875 " stroke="#6E6E6E" fill="none" stroke-width="1" stroke-opacity="1" />
  <path d="M212.798309326172,54.6697807312012 C212.798309326172,70.5 212.798309326172,70.5 200.378082275391,70.5 C187.957855224609,70.5 187.957855224609,70.5 187.957855224609,73.3545150756836 " stroke="#6E6E6E" fill="none" stroke-width="1" stroke-opacity="1" />
  <path d="M187.957855224609,79.0545196533203 L185.737854003906,73.3545150756836 L190.177841186523,73.3545150756836 L187.957855224609,79.0545196533203 " stroke="none" fill="#6E6E6E" fill-rule="evenodd" stroke-width="0" fill-opacity="1" />
  <path d="M187.957855224609,79.0545196533203 L185.737854003906,73.3545150756836 L190.177841186523,73.3545150756836 L187.957855224609,79.0545196533203 " stroke="#6E6E6E" fill="none" stroke-width="1" stroke-opacity="1" />
  <path d="M183.030517578125,126.9375 C183.030517578125,139.5 183.030517578125,139.5 189.731491088867,139.5 C196.43244934082,139.5 196.43244934082,139.5 196.43244934082,140.530838012695 " stroke="#6E6E6E" fill="none" stroke-width="1" stroke-opacity="1" />
  <path d="M196.432464599609,146.230850219727 L194.212463378906,140.530838012695 L198.652450561523,140.530838012695 L196.432464599609,146.230850219727 " stroke="none" fill="#6E6E6E" fill-rule="evenodd" stroke-width="0" fill-opacity="1" />
  <path d="M196.432464599609,146.230850219727 L194.212463378906,140.530838012695 L198.652450561523,140.530838012695 L196.432464599609,146.230850219727 " stroke="#6E6E6E" fill="none" stroke-width="1" stroke-opacity="1" />
  <path d="M163.580017089844,126.9375 C163.580017089844,784.5 163.580017089844,784.5 141.906478881836,784.5 C120.232940673828,784.5 120.232940673828,784.5 120.232940673828,784.743347167969 " stroke="#6E6E6E" fill="none" stroke-width="1" stroke-opacity="1" />
  <path d="M120.232940673828,790.443420410156 L118.012939453125,784.743408203125 L122.452934265137,784.743408203125 L120.232940673828,790.443420410156 " stroke="none" fill="#6E6E6E" fill-rule="evenodd" stroke-width="0" fill-opacity="1" />
  <path d="M120.232940673828,790.443420410156 L118.012939453125,784.743408203125 L122.452934265137,784.743408203125 L120.232940673828,790.443420410156 " stroke="#6E6E6E" fill="none" stroke-width="1" stroke-opacity="1" />
  <path d="M479.173950195313,320.4375 C479.173950195313,329.0625 479.173950195313,329.0625 479.173950195313,331.987487792969 " stroke="#6E6E6E" fill="none" stroke-width="1" stroke-opacity="1" />
  <path d="M479.173950195313,337.6875 L476.953948974609,331.987487792969 L481.393920898438,331.987487792969 L479.173950195313,337.6875 " stroke="none" fill="#6E6E6E" fill-rule="evenodd" stroke-width="0" fill-opacity="1" />
  <path d="M479.173950195313,337.6875 L476.953948974609,331.987487792969 L481.393920898438,331.987487792969 L479.173950195313,337.6875 " stroke="#6E6E6E" fill="none" stroke-width="1" stroke-opacity="1" />
  <path d="M479.173950195313,384.9375 C479.173950195313,393.5625 479.173950195313,393.5625 479.173950195313,396.487518310547 " stroke="#6E6E6E" fill="none" stroke-width="1" stroke-opacity="1" />
  <path d="M479.173950195313,402.1875 L476.953948974609,396.487487792969 L481.393920898438,396.487487792969 L479.173950195313,402.1875 " stroke="none" fill="#6E6E6E" fill-rule="evenodd" stroke-width="0" fill-opacity="1" />
  <path d="M479.173950195313,402.1875 L476.953948974609,396.487487792969 L481.393920898438,396.487487792969 L479.173950195313,402.1875 " stroke="#6E6E6E" fill="none" stroke-width="1" stroke-opacity="1" />
  <path d="M479.173950195313,449.4375 C479.173950195313,458.0625 479.173950195313,458.0625 479.173950195313,460.987518310547 " stroke="#6E6E6E" fill="none" stroke-width="1" stroke-opacity="1" />
  <path d="M479.173950195313,466.6875 L476.953948974609,460.987487792969 L481.393920898438,460.987487792969 L479.173950195313,466.6875 " stroke="none" fill="#6E6E6E" fill-rule="evenodd" stroke-width="0" fill-opacity="1" />
  <path d="M479.173950195313,466.6875 L476.953948974609,460.987487792969 L481.393920898438,460.987487792969 L479.173950195313,466.6875 " stroke="#6E6E6E" fill="none" stroke-width="1" stroke-opacity="1" />
  <path d="M479.173950195313,513.9375 C479.173950195313,522.5625 479.173950195313,522.5625 479.173950195313,525.487487792969 " stroke="#6E6E6E" fill="none" stroke-width="1" stroke-opacity="1" />
  <path d="M479.173950195313,531.1875 L476.953948974609,525.487487792969 L481.393920898438,525.487487792969 L479.173950195313,531.1875 " stroke="none" fill="#6E6E6E" fill-rule="evenodd" stroke-width="0" fill-opacity="1" />
  <path d="M479.173950195313,531.1875 L476.953948974609,525.487487792969 L481.393920898438,525.487487792969 L479.173950195313,531.1875 " stroke="#6E6E6E" fill="none" stroke-width="1" stroke-opacity="1" />
  <path d="M389.923950195313,767.213195800781 C389.923950195313,775.838195800781 389.923950195313,775.838195800781 389.923950195313,778.76318359375 " stroke="#6E6E6E" fill="none" stroke-width="1" stroke-opacity="1" />
  <path d="M389.923950195313,784.463195800781 L387.703948974609,778.76318359375 L392.143920898438,778.76318359375 L389.923950195313,784.463195800781 " stroke="none" fill="#6E6E6E" fill-rule="evenodd" stroke-width="0" fill-opacity="1" />
  <path d="M389.923950195313,784.463195800781 L387.703948974609,778.76318359375 L392.143920898438,778.76318359375 L389.923950195313,784.463195800781 " stroke="#6E6E6E" fill="none" stroke-width="1" stroke-opacity="1" />
  <path d="M458.540863037109,742.796997070313 C458.540863037109,778.5 458.540863037109,778.5 436.646606445313,778.5 C414.752319335938,778.5 414.752319335938,778.5 414.752319335938,778.76318359375 " stroke="#6E6E6E" fill="none" stroke-width="1" stroke-opacity="1" />
  <path d="M414.752349853516,784.463195800781 L412.532348632813,778.76318359375 L416.972320556641,778.76318359375 L414.752349853516,784.463195800781 " stroke="none" fill="#6E6E6E" fill-rule="evenodd" stroke-width="0" fill-opacity="1" />
  <path d="M414.752349853516,784.463195800781 L412.532348632813,778.76318359375 L416.972320556641,778.76318359375 L414.752349853516,784.463195800781 " stroke="#6E6E6E" fill="none" stroke-width="1" stroke-opacity="1" />
  <path d="M389.923950195313,831.713195800781 C389.923950195313,867.295532226563 389.923950195313,867.295532226563 389.923950195313,897.177978515625 " stroke="#6E6E6E" fill="none" stroke-width="1" stroke-opacity="1" />
  <path d="M389.923950195313,902.8779296875 L387.703948974609,897.177917480469 L392.143920898438,897.177917480469 L389.923950195313,902.8779296875 " stroke="none" fill="#6E6E6E" fill-rule="evenodd" stroke-width="0" fill-opacity="1" />
  <path d="M389.923950195313,902.8779296875 L387.703948974609,897.177917480469 L392.143920898438,897.177917480469 L389.923950195313,902.8779296875 " stroke="#6E6E6E" fill="none" stroke-width="1" stroke-opacity="1" />
  <path d="M370.966857910156,946.71484375 C370.966857910156,1015.5 370.966857910156,1015.5 335.992980957031,1015.5 C301.019104003906,1015.5 301.019104003906,1015.5 301.019104003906,1015.59271240234 " stroke="#6E6E6E" fill="none" stroke-width="1" stroke-opacity="1" />
  <path d="M301.019134521484,1021.29272460938 L298.799133300781,1015.59271240234 L303.239105224609,1015.59271240234 L301.019134521484,1021.29272460938 " stroke="none" fill="#6E6E6E" fill-rule="evenodd" stroke-width="0" fill-opacity="1" />
  <path d="M301.019134521484,1021.29272460938 L298.799133300781,1015.59271240234 L303.239105224609,1015.59271240234 L301.019134521484,1021.29272460938 " stroke="#6E6E6E" fill="none" stroke-width="1" stroke-opacity="1" />
  <path d="M234.033432006836,58.4313278198242 C234.033432006836,142.5 234.033432006836,142.5 255.910369873047,142.5 C277.787292480469,142.5 277.787292480469,142.5 277.787292480469,1015.59271240234 " stroke="#6E6E6E" fill="none" stroke-width="1" stroke-opacity="1" />
  <path d="M277.787292480469,1021.29272460938 L275.567291259766,1015.59271240234 L280.007263183594,1015.59271240234 L277.787292480469,1021.29272460938 " stroke="none" fill="#6E6E6E" fill-rule="evenodd" stroke-width="0" fill-opacity="1" />
  <path d="M277.787292480469,1021.29272460938 L275.567291259766,1015.59271240234 L280.007263183594,1015.59271240234 L277.787292480469,1021.29272460938 " stroke="#6E6E6E" fill="none" stroke-width="1" stroke-opacity="1" />
  <path d="M278.86083984375,1068.54272460938 C278.86083984375,1077.16772460938 278.86083984375,1077.16772460938 278.86083984375,1080.09265136719 " stroke="#6E6E6E" fill="none" stroke-width="1" stroke-opacity="1" />
  <path d="M278.860870361328,1085.79272460938 L276.640869140625,1080.09265136719 L281.080841064453,1080.09265136719 L278.860870361328,1085.79272460938 " stroke="none" fill="#6E6E6E" fill-rule="evenodd" stroke-width="0" fill-opacity="1" />
  <path d="M278.860870361328,1085.79272460938 L276.640869140625,1080.09265136719 L281.080841064453,1080.09265136719 L278.860870361328,1085.79272460938 " stroke="#6E6E6E" fill="none" stroke-width="1" stroke-opacity="1" />
  <path d="M203.238479614258,955.812927246094 C203.238479614258,1015.5 203.238479614258,1015.5 231.024536132813,1015.5 C258.810546875,1015.5 258.810546875,1015.5 258.810546875,1015.59271240234 " stroke="#6E6E6E" fill="none" stroke-width="1" stroke-opacity="1" stroke-dasharray="3,1,1,1,1,1" />
  <path d="M258.810546875,1021.29272460938 L256.590545654297,1015.59271240234 L261.030517578125,1015.59271240234 L258.810546875,1021.29272460938 " stroke="none" fill="#6E6E6E" fill-rule="evenodd" stroke-width="0" fill-opacity="1" />
  <path d="M258.810546875,1021.29272460938 L256.590545654297,1015.59271240234 L261.030517578125,1015.59271240234 L258.810546875,1021.29272460938 " stroke="#6E6E6E" fill="none" stroke-width="1" stroke-opacity="1" />
  <path d="M479.173950195313,597.364868164063 C479.173950195313,605.989868164063 479.173950195313,605.989868164063 479.173950195313,608.914855957031 " stroke="#6E6E6E" fill="none" stroke-width="1" stroke-opacity="1" />
  <path d="M479.173950195313,614.614868164063 L476.953948974609,608.914855957031 L481.393920898438,608.914855957031 L479.173950195313,614.614868164063 " stroke="none" fill="#6E6E6E" fill-rule="evenodd" stroke-width="0" fill-opacity="1" />
  <path d="M479.173950195313,614.614868164063 L476.953948974609,608.914855957031 L481.393920898438,608.914855957031 L479.173950195313,614.614868164063 " stroke="#6E6E6E" fill="none" stroke-width="1" stroke-opacity="1" />
  <path d="M479.173950195313,661.864868164063 C479.173950195313,680.701904296875 479.173950195313,680.701904296875 479.173950195313,693.838989257813 " stroke="#6E6E6E" fill="none" stroke-width="1" stroke-opacity="1" />
  <path d="M479.173950195313,699.5390625 L476.953948974609,693.839050292969 L481.393920898438,693.839050292969 L479.173950195313,699.5390625 " stroke="none" fill="#6E6E6E" fill-rule="evenodd" stroke-width="0" fill-opacity="1" />
  <path d="M479.173950195313,699.5390625 L476.953948974609,693.839050292969 L481.393920898438,693.839050292969 L479.173950195313,699.5390625 " stroke="#6E6E6E" fill="none" stroke-width="1" stroke-opacity="1" />
  <path d="M15,848.963195800781 L223.160385131836,848.963195800781 L223.160354614258,848.963195800781 C225.2314453125,848.963134765625 226.910354614258,850.64208984375 226.910354614258,852.713134765625 C226.910354614258,852.713134765625 226.910354614258,852.713195800781 226.910354614258,852.713195800781 L226.910385131836,852.713195800781 L226.910385131836,1000.29266357422 L226.910354614258,1000.29266357422 C226.910354614258,1002.36376953125 225.2314453125,1004.04266357422 223.160385131836,1004.04266357422 L223.160385131836,1004.04266357422 L15,1004.04266357422 L15.0000019073486,1004.04266357422 C12.92893409729,1004.04266357422 11.2500009536743,1002.36376953125 11.25,1000.29266357422 L11.25,852.713195800781 L11.2499990463257,852.713195800781 C11.2499980926514,850.64208984375 12.9289283752441,848.963195800781 14.9999952316284,848.963134765625 " stroke="none" fill="none" fill-rule="evenodd" stroke-width="0" fill-opacity="0" />
  <path d="M11.25,848.963195800781 L226.910385131836,848.963195800781 L226.910385131836,863.136413574219 L11.25,863.136413574219  z" stroke="none" fill="#F2E279" fill-rule="evenodd" stroke-width="0" fill-opacity="1" />
  <text x="65.0013275146484" y="15.628324508667" dx="0" dy="0" font-family="Arial" font-size="8.76521746399272pt" fill="#000000" style="text-anchor:start" transform="matrix(0.750000 0.000000 0.000000 0.750000 11.25 848.963195800781)">Check if last iteration</text>
  <path d="M11.25,863.136413574219 L226.910385131836,863.136413574219 " stroke="#F2E279" fill="none" stroke-width="5" stroke-opacity="1" />
  <path d="M15,848.963195800781 L223.160385131836,848.963195800781 L223.160354614258,848.963195800781 C225.2314453125,848.963134765625 226.910354614258,850.64208984375 226.910354614258,852.713134765625 C226.910354614258,852.713134765625 226.910354614258,852.713195800781 226.910354614258,852.713195800781 L226.910385131836,852.713195800781 L226.910385131836,1000.29266357422 L226.910354614258,1000.29266357422 C226.910354614258,1002.36376953125 225.2314453125,1004.04266357422 223.160385131836,1004.04266357422 L223.160385131836,1004.04266357422 L15,1004.04266357422 L15.0000019073486,1004.04266357422 C12.92893409729,1004.04266357422 11.2500009536743,1002.36376953125 11.25,1000.29266357422 L11.25,852.713195800781 L11.2499990463257,852.713195800781 C11.2499980926514,850.64208984375 12.9289283752441,848.963195800781 14.9999952316284,848.963134765625 " stroke="#F2E279" fill="none" stroke-width="5" stroke-opacity="1" />
  <path d="M224.075729370117,856.0498046875 C224.075729370117,858.398071289063 222.17204284668,860.3017578125 219.823760986328,860.3017578125 C217.475463867188,860.3017578125 215.57177734375,858.398071289063 215.57177734375,856.0498046875 C215.57177734375,853.701477050781 217.475463867188,851.797790527344 219.823760986328,851.797790527344 C222.17204284668,851.797790527344 224.075729370117,853.701477050781 224.075729370117,856.0498046875 " stroke="none" fill="url(#Gradient0)" fill-rule="evenodd" stroke-width="0" fill-opacity="1" />
  <path d="M224.075729370117,856.0498046875 C224.075729370117,858.398071289063 222.17204284668,860.3017578125 219.823760986328,860.3017578125 C217.475463867188,860.3017578125 215.57177734375,858.398071289063 215.57177734375,856.0498046875 C215.57177734375,853.701477050781 217.475463867188,851.797790527344 219.823760986328,851.797790527344 C222.17204284668,851.797790527344 224.075729370117,853.701477050781 224.075729370117,856.0498046875 " stroke="#808080" fill="none" stroke-width="0.8347826" stroke-opacity="1" />
  <path d="M219.823791503906,855.199401855469 L218.122985839844,856.900146484375 " stroke="#000000" fill="none" stroke-width="0.8347826" stroke-opacity="1" />
  <path d="M219.823791503906,855.199401855469 L221.524566650391,856.900146484375 " stroke="#000000" fill="none" stroke-width="0.8347826" stroke-opacity="1" />
  <path d="M219.823791503906,856.451538085938 L219.375152587891,856.900146484375 " stroke="#000000" fill="none" stroke-width="0.8347826" stroke-opacity="1" />
  <path d="M219.823791503906,856.451538085938 L220.272399902344,856.900146484375 " stroke="#000000" fill="none" stroke-width="0.8347826" stroke-opacity="1" />
  <path d="M51.709716796875,968.118591308594 C51.709716796875,951.392028808594 51.709716796875,951.392028808594 73.2574157714844,951.392028808594 C94.8051223754883,951.392028808594 94.8051223754883,951.392028808594 94.8051223754883,934.667175292969 " stroke="#6E6E6E" fill="none" stroke-width="1" stroke-opacity="1" />
  <path d="M94.8051147460938,928.967163085938 L97.0251159667969,934.667114257813 L92.5851211547852,934.667114257813 L94.8051147460938,928.967163085938 " stroke="none" fill="#6E6E6E" fill-rule="evenodd" stroke-width="0" fill-opacity="1" />
  <path d="M94.8051147460938,928.967163085938 L97.0251159667969,934.667114257813 L92.5851211547852,934.667114257813 L94.8051147460938,928.967163085938 " stroke="#6E6E6E" fill="none" stroke-width="1" stroke-opacity="1" />
  <path d="M134.921325683594,907.245666503906 C154.722885131836,907.245666503906 154.722885131836,907.245666503906 154.722885131836,902.469177246094 C154.722885131836,897.692749023438 154.722885131836,897.692749023438 159.513366699219,897.692749023438 " stroke="#6E6E6E" fill="none" stroke-width="1" stroke-opacity="1" />
  <path d="M165.21337890625,897.692749023438 L159.513366699219,899.912780761719 L159.513366699219,895.472778320313 L165.21337890625,897.692749023438 " stroke="none" fill="#6E6E6E" fill-rule="evenodd" stroke-width="0" fill-opacity="1" />
  <path d="M165.21337890625,897.692749023438 L159.513366699219,899.912780761719 L159.513366699219,895.472778320313 L165.21337890625,897.692749023438 " stroke="#6E6E6E" fill="none" stroke-width="1" stroke-opacity="1" />
  <path d="M134.921325683594,922.902099609375 C154.722885131836,922.902099609375 154.722885131836,922.902099609375 154.722885131836,927.678588867188 C154.722885131836,932.454956054688 154.722885131836,932.454956054688 159.513366699219,932.454956054688 " stroke="#6E6E6E" fill="none" stroke-width="1" stroke-opacity="1" />
  <path d="M165.21337890625,932.454956054688 L159.513366699219,934.674987792969 L159.513366699219,930.234985351563 L165.21337890625,932.454956054688 " stroke="none" fill="#6E6E6E" fill-rule="evenodd" stroke-width="0" fill-opacity="1" />
  <path d="M165.21337890625,932.454956054688 L159.513366699219,934.674987792969 L159.513366699219,930.234985351563 L165.21337890625,932.454956054688 " stroke="#6E6E6E" fill="none" stroke-width="1" stroke-opacity="1" />
  <path d="M110.09789276123,891.448913574219 L147.222885131836,915.073913574219 L110.09789276123,938.698913574219 L72.9728927612305,915.073913574219 L110.09789276123,891.448913574219 " stroke="none" fill="#F2E279" fill-rule="evenodd" stroke-width="0" fill-opacity="1" />
  <text x="28.4121894836426" y="37.6795043945313" dx="0" dy="0" font-family="Arial" font-size="8.76521746399272pt" fill="#000000" style="text-anchor:start" transform="matrix(0.750000 0.000000 0.000000 0.750000 72.9728927612305 891.448913574219)">If == 5</text>
  <path d="M110.09789276123,891.448913574219 L147.222885131836,915.073913574219 L110.09789276123,938.698913574219 L72.9728927612305,915.073913574219 L110.09789276123,891.448913574219 " stroke="none" fill="none" stroke-width="0.626087" stroke-opacity="0" />
  <path d="M217.910385131836,940.292602539063 C217.910385131836,950.078430175781 205.444320678711,958.011352539063 190.066650390625,958.011352539063 C174.688980102539,958.011413574219 162.222900390625,950.078430175781 162.222900390625,940.292663574219 C162.222900390625,940.292663574219 162.222900390625,940.292663574219 162.222900390625,940.292663574219 L162.222885131836,940.292663574219 C162.222885131836,930.5068359375 174.688949584961,922.573913574219 190.066619873047,922.573913574219 C205.444290161133,922.573852539063 217.910369873047,930.5068359375 217.910385131836,940.292663574219 C217.910385131836,940.292663574219 217.910385131836,940.292663574219 217.910385131836,940.292663574219 " stroke="none" fill="#82CAED" fill-rule="evenodd" stroke-width="0" fill-opacity="1" />
  <text x="19.6801891326904" y="29.8045043945313" dx="0" dy="0" font-family="Arial" font-size="8.76521746399272pt" fill="#000000" style="text-anchor:start" transform="matrix(0.750000 0.000000 0.000000 0.750000 162.222900390625 922.573913574219)">True</text>
  <path d="M217.910385131836,940.292602539063 C217.910385131836,950.078430175781 205.444320678711,958.011352539063 190.066650390625,958.011352539063 C174.688980102539,958.011413574219 162.222900390625,950.078430175781 162.222900390625,940.292663574219 C162.222900390625,940.292663574219 162.222900390625,940.292663574219 162.222900390625,940.292663574219 L162.222885131836,940.292663574219 C162.222885131836,930.5068359375 174.688949584961,922.573913574219 190.066619873047,922.573913574219 C205.444290161133,922.573852539063 217.910369873047,930.5068359375 217.910385131836,940.292663574219 C217.910385131836,940.292663574219 217.910385131836,940.292663574219 217.910385131836,940.292663574219 " stroke="none" fill="none" stroke-width="0.626087" stroke-opacity="0" />
  <path d="M217.910385131836,889.855102539063 C217.910385131836,899.640930175781 205.444320678711,907.573852539063 190.066650390625,907.573852539063 C174.688980102539,907.573913574219 162.222900390625,899.640930175781 162.222900390625,889.855163574219 C162.222900390625,889.855163574219 162.222900390625,889.855163574219 162.222900390625,889.855163574219 L162.222885131836,889.855163574219 C162.222885131836,880.0693359375 174.688949584961,872.136413574219 190.066619873047,872.136413574219 C205.444290161133,872.136352539063 217.910369873047,880.0693359375 217.910385131836,889.855163574219 C217.910385131836,889.855163574219 217.910385131836,889.855163574219 217.910385131836,889.855163574219 " stroke="none" fill="#82CAED" fill-rule="evenodd" stroke-width="0" fill-opacity="1" />
  <text x="16.4378566741943" y="29.8045043945313" dx="0" dy="0" font-family="Arial" font-size="8.76521746399272pt" fill="#000000" style="text-anchor:start" transform="matrix(0.750000 0.000000 0.000000 0.750000 162.222900390625 872.136413574219)">False</text>
  <path d="M217.910385131836,889.855102539063 C217.910385131836,899.640930175781 205.444320678711,907.573852539063 190.066650390625,907.573852539063 C174.688980102539,907.573913574219 162.222900390625,899.640930175781 162.222900390625,889.855163574219 C162.222900390625,889.855163574219 162.222900390625,889.855163574219 162.222900390625,889.855163574219 L162.222885131836,889.855163574219 C162.222885131836,880.0693359375 174.688949584961,872.136413574219 190.066619873047,872.136413574219 C205.444290161133,872.136352539063 217.910369873047,880.0693359375 217.910385131836,889.855163574219 C217.910385131836,889.855163574219 217.910385131836,889.855163574219 217.910385131836,889.855163574219 " stroke="none" fill="none" stroke-width="0.626087" stroke-opacity="0" />
  <path d="M57.9728889465332,979.56396484375 C57.9728889465332,988.112670898438 49.5283317565918,995.042724609375 39.1114540100098,995.042724609375 C28.6945629119873,995.042724609375 20.2500038146973,988.112670898438 20.25,979.564025878906 C20.25,979.564025878906 20.25,979.564025878906 20.25,979.564025878906 L20.2499980926514,979.564025878906 C20.2499885559082,971.015380859375 28.6945400238037,964.085327148438 39.1114311218262,964.085327148438 C49.5283203125,964.085266113281 57.9728813171387,971.015319824219 57.9728889465332,979.564025878906 C57.9728889465332,979.564025878906 57.9728889465332,979.564025878906 57.9728889465332,979.564025878906 " stroke="none" fill="#70AECC" fill-rule="evenodd" stroke-width="0" fill-opacity="1" />
  <text x="18.069522857666" y="26.8177719116211" dx="0" dy="0" font-family="Arial" font-size="8.76521746399272pt" fill="#000000" style="text-anchor:start" transform="matrix(0.750000 0.000000 0.000000 0.750000 20.25 964.085327148438)">5</text>
  <path d="M57.9728889465332,979.56396484375 C57.9728889465332,988.112670898438 49.5283317565918,995.042724609375 39.1114540100098,995.042724609375 C28.6945629119873,995.042724609375 20.2500038146973,988.112670898438 20.25,979.564025878906 C20.25,979.564025878906 20.25,979.564025878906 20.25,979.564025878906 L20.2499980926514,979.564025878906 C20.2499885559082,971.015380859375 28.6945400238037,964.085327148438 39.1114311218262,964.085327148438 C49.5283203125,964.085266113281 57.9728813171387,971.015319824219 57.9728889465332,979.564025878906 C57.9728889465332,979.564025878906 57.9728889465332,979.564025878906 57.9728889465332,979.564025878906 " stroke="none" fill="none" stroke-width="0.626087" stroke-opacity="0" />
  <path d="M214.829513549805,1207.78674316406 L565.018371582031,1207.78674316406 L565.018310546875,1207.78674316406 C567.089416503906,1207.78662109375 568.768310546875,1209.46557617188 568.768310546875,1211.53662109375 C568.768310546875,1211.53662109375 568.768310546875,1211.53674316406 568.768310546875,1211.53674316406 L568.768371582031,1211.53674316406 L568.768371582031,1433.12255859375 L568.768310546875,1433.12255859375 C568.768310546875,1435.19360351563 567.089416503906,1436.87255859375 565.018371582031,1436.87255859375 L565.018371582031,1436.87255859375 L214.829513549805,1436.87255859375 L214.829513549805,1436.87255859375 C212.758438110352,1436.87255859375 211.079513549805,1435.19360351563 211.079513549805,1433.12255859375 L211.079513549805,1211.53674316406 L211.079498291016,1211.53674316406 C211.079498291016,1209.46557617188 212.758438110352,1207.78674316406 214.829498291016,1207.78662109375 " stroke="none" fill="none" fill-rule="evenodd" stroke-width="0" fill-opacity="0" />
  <path d="M211.079513549805,1207.78674316406 L568.768371582031,1207.78674316406 L568.768371582031,1221.9599609375 L211.079513549805,1221.9599609375  z" stroke="none" fill="#F2E279" fill-rule="evenodd" stroke-width="0" fill-opacity="1" />
  <text x="195.094665527344" y="15.628324508667" dx="0" dy="0" font-family="Arial" font-size="8.76521746399272pt" fill="#000000" style="text-anchor:start" transform="matrix(0.750000 0.000000 0.000000 0.750000 211.079513549805 1207.78674316406)">Clean</text>
  <text x="234.397659301758" y="15.628324508667" dx="0" dy="0" font-family="Arial" font-size="8.76521746399272pt" fill="#000000" style="text-anchor:start" transform="matrix(0.750000 0.000000 0.000000 0.750000 211.079513549805 1207.78674316406)">-</text>
  <text x="236.337997436523" y="15.628324508667" dx="0" dy="0" font-family="Arial" font-size="8.76521746399272pt" fill="#000000" style="text-anchor:start" transform="matrix(0.750000 0.000000 0.000000 0.750000 211.079513549805 1207.78674316406)">Up</text>
  <path d="M211.079513549805,1221.9599609375 L568.768371582031,1221.9599609375 " stroke="#F2E279" fill="none" stroke-width="5" stroke-opacity="1" />
  <path d="M214.829513549805,1207.78674316406 L565.018371582031,1207.78674316406 L565.018310546875,1207.78674316406 C567.089416503906,1207.78662109375 568.768310546875,1209.46557617188 568.768310546875,1211.53662109375 C568.768310546875,1211.53662109375 568.768310546875,1211.53674316406 568.768310546875,1211.53674316406 L568.768371582031,1211.53674316406 L568.768371582031,1433.12255859375 L568.768310546875,1433.12255859375 C568.768310546875,1435.19360351563 567.089416503906,1436.87255859375 565.018371582031,1436.87255859375 L565.018371582031,1436.87255859375 L214.829513549805,1436.87255859375 L214.829513549805,1436.87255859375 C212.758438110352,1436.87255859375 211.079513549805,1435.19360351563 211.079513549805,1433.12255859375 L211.079513549805,1211.53674316406 L211.079498291016,1211.53674316406 C211.079498291016,1209.46557617188 212.758438110352,1207.78674316406 214.829498291016,1207.78662109375 " stroke="#F2E279" fill="none" stroke-width="5" stroke-opacity="1" />
  <path d="M565.933654785156,1214.87329101563 C565.933654785156,1217.22155761719 564.030029296875,1219.12524414063 561.681701660156,1219.12524414063 C559.333435058594,1219.12524414063 557.429748535156,1217.22155761719 557.429748535156,1214.87329101563 C557.429748535156,1212.52502441406 559.333435058594,1210.62133789063 561.681701660156,1210.62133789063 C564.030029296875,1210.62133789063 565.933654785156,1212.52502441406 565.933654785156,1214.87329101563 " stroke="none" fill="url(#Gradient1)" fill-rule="evenodd" stroke-width="0" fill-opacity="1" />
  <path d="M565.933654785156,1214.87329101563 C565.933654785156,1217.22155761719 564.030029296875,1219.12524414063 561.681701660156,1219.12524414063 C559.333435058594,1219.12524414063 557.429748535156,1217.22155761719 557.429748535156,1214.87329101563 C557.429748535156,1212.52502441406 559.333435058594,1210.62133789063 561.681701660156,1210.62133789063 C564.030029296875,1210.62133789063 565.933654785156,1212.52502441406 565.933654785156,1214.87329101563 " stroke="#808080" fill="none" stroke-width="0.8347826" stroke-opacity="1" />
  <path d="M561.681762695313,1214.02294921875 L559.98095703125,1215.7236328125 " stroke="#000000" fill="none" stroke-width="0.8347826" stroke-opacity="1" />
  <path d="M561.681762695313,1214.02294921875 L563.382507324219,1215.7236328125 " stroke="#000000" fill="none" stroke-width="0.8347826" stroke-opacity="1" />
  <path d="M561.681762695313,1215.27502441406 L561.233154296875,1215.7236328125 " stroke="#000000" fill="none" stroke-width="0.8347826" stroke-opacity="1" />
  <path d="M561.681762695313,1215.27502441406 L562.13037109375,1215.7236328125 " stroke="#000000" fill="none" stroke-width="0.8347826" stroke-opacity="1" />
  <path d="M385.768402099609,1278.35949707031 L556.018371582031,1278.35949707031 L556.018371582031,1278.35949707031 C558.089416503906,1278.359375 559.768371582031,1280.03833007813 559.768371582031,1282.109375 C559.768371582031,1282.109375 559.768371582031,1282.10949707031 559.768371582031,1282.10949707031 L559.768371582031,1282.10949707031 L559.768371582031,1406.72021484375 L559.768371582031,1406.72021484375 C559.768371582031,1408.79125976563 558.089416503906,1410.47021484375 556.018371582031,1410.47021484375 L556.018371582031,1410.47021484375 L385.768402099609,1410.47021484375 L385.768402099609,1410.47021484375 C383.697326660156,1410.47021484375 382.018402099609,1408.79125976563 382.018402099609,1406.72021484375 L382.018402099609,1282.10949707031 L382.018371582031,1282.10949707031 C382.018371582031,1280.03833007813 383.697326660156,1278.35949707031 385.768371582031,1278.359375 " stroke="none" fill="none" fill-rule="evenodd" stroke-width="0" fill-opacity="0" />
  <path d="M382.018402099609,1278.35949707031 L559.768371582031,1278.35949707031 L559.768371582031,1292.53271484375 L382.018402099609,1292.53271484375  z" stroke="none" fill="#F2E279" fill-rule="evenodd" stroke-width="0" fill-opacity="1" />
  <text x="-0.738671898841858" y="15.628324508667" dx="0" dy="0" font-family="Arial" font-size="8.76521746399272pt" fill="#000000" style="text-anchor:start" transform="matrix(0.750000 0.000000 0.000000 0.750000 382.018402099609 1278.35949707031)">Delete Files in Scratch.gdb whe</text>
  <text x="194.198669433594" y="15.628324508667" dx="0" dy="0" font-family="Arial" font-size="8.76521746399272pt" fill="#000000" style="text-anchor:start" transform="matrix(0.750000 0.000000 0.000000 0.750000 382.018402099609 1278.35949707031)"> ...</text>
  <path d="M382.018402099609,1292.53271484375 L559.768371582031,1292.53271484375 " stroke="#F2E279" fill="none" stroke-width="5" stroke-opacity="1" />
  <path d="M385.768402099609,1278.35949707031 L556.018371582031,1278.35949707031 L556.018371582031,1278.35949707031 C558.089416503906,1278.359375 559.768371582031,1280.03833007813 559.768371582031,1282.109375 C559.768371582031,1282.109375 559.768371582031,1282.10949707031 559.768371582031,1282.10949707031 L559.768371582031,1282.10949707031 L559.768371582031,1406.72021484375 L559.768371582031,1406.72021484375 C559.768371582031,1408.79125976563 558.089416503906,1410.47021484375 556.018371582031,1410.47021484375 L556.018371582031,1410.47021484375 L385.768402099609,1410.47021484375 L385.768402099609,1410.47021484375 C383.697326660156,1410.47021484375 382.018402099609,1408.79125976563 382.018402099609,1406.72021484375 L382.018402099609,1282.10949707031 L382.018371582031,1282.10949707031 C382.018371582031,1280.03833007813 383.697326660156,1278.35949707031 385.768371582031,1278.359375 " stroke="#F2E279" fill="none" stroke-width="5" stroke-opacity="1" />
  <path d="M556.933715820313,1285.44604492188 C556.933715820313,1287.79431152344 555.030029296875,1289.69799804688 552.681762695313,1289.69799804688 C550.333435058594,1289.69799804688 548.429748535156,1287.79431152344 548.429748535156,1285.44604492188 C548.429748535156,1283.09777832031 550.333435058594,1281.19409179688 552.681762695313,1281.19409179688 C555.030029296875,1281.19409179688 556.933715820313,1283.09777832031 556.933715820313,1285.44604492188 " stroke="none" fill="url(#Gradient2)" fill-rule="evenodd" stroke-width="0" fill-opacity="1" />
  <path d="M556.933715820313,1285.44604492188 C556.933715820313,1287.79431152344 555.030029296875,1289.69799804688 552.681762695313,1289.69799804688 C550.333435058594,1289.69799804688 548.429748535156,1287.79431152344 548.429748535156,1285.44604492188 C548.429748535156,1283.09777832031 550.333435058594,1281.19409179688 552.681762695313,1281.19409179688 C555.030029296875,1281.19409179688 556.933715820313,1283.09777832031 556.933715820313,1285.44604492188 " stroke="#808080" fill="none" stroke-width="0.8347826" stroke-opacity="1" />
  <path d="M552.681762695313,1284.595703125 L550.98095703125,1286.29638671875 " stroke="#000000" fill="none" stroke-width="0.8347826" stroke-opacity="1" />
  <path d="M552.681762695313,1284.595703125 L554.382568359375,1286.29638671875 " stroke="#000000" fill="none" stroke-width="0.8347826" stroke-opacity="1" />
  <path d="M552.681762695313,1285.84777832031 L552.233154296875,1286.29638671875 " stroke="#000000" fill="none" stroke-width="0.8347826" stroke-opacity="1" />
  <path d="M552.681762695313,1285.84777832031 L553.13037109375,1286.29638671875 " stroke="#000000" fill="none" stroke-width="0.8347826" stroke-opacity="1" />
  <path d="M428.143371582031,1348.78271484375 C428.143371582031,1357.40771484375 428.143371582031,1357.40771484375 428.143371582031,1360.33264160156 " stroke="#6E6E6E" fill="none" stroke-width="1" stroke-opacity="1" />
  <path d="M428.143402099609,1366.03271484375 L425.923400878906,1360.33264160156 L430.363372802734,1360.33264160156 L428.143402099609,1366.03271484375 " stroke="none" fill="#6E6E6E" fill-rule="evenodd" stroke-width="0" fill-opacity="1" />
  <path d="M428.143402099609,1366.03271484375 L425.923400878906,1360.33264160156 L430.363372802734,1360.33264160156 L428.143402099609,1366.03271484375 " stroke="#6E6E6E" fill="none" stroke-width="1" stroke-opacity="1" />
  <path d="M513.643371582031,1348.78271484375 C513.643371582031,1357.40771484375 513.643371582031,1357.40771484375 513.643371582031,1360.33264160156 " stroke="#6E6E6E" fill="none" stroke-width="1" stroke-opacity="1" />
  <path d="M513.643371582031,1366.03271484375 L511.423370361328,1360.33264160156 L515.863342285156,1360.33264160156 L513.643371582031,1366.03271484375 " stroke="none" fill="#6E6E6E" fill-rule="evenodd" stroke-width="0" fill-opacity="1" />
  <path d="M513.643371582031,1366.03271484375 L511.423370361328,1360.33264160156 L515.863342285156,1360.33264160156 L513.643371582031,1366.03271484375 " stroke="#6E6E6E" fill="none" stroke-width="1" stroke-opacity="1" />
  <path d="M399.522338867188,1301.53271484375 L456.764434814453,1301.53271484375 L456.764434814453,1301.53271484375 C461.461029052734,1301.53259277344 465.268371582031,1305.33996582031 465.268371582031,1310.03662109375 C465.268371582031,1310.03662109375 465.268371582031,1310.03662109375 465.268371582031,1310.03662109375 L465.268402099609,1310.03662109375 L465.268402099609,1340.27868652344 L465.268371582031,1340.27868652344 C465.268371582031,1344.97534179688 461.461029052734,1348.78259277344 456.764434814453,1348.78259277344 L456.764434814453,1348.78271484375 L399.522338867188,1348.78271484375 L399.522338867188,1348.78259277344 C394.825744628906,1348.78271484375 391.018402099609,1344.97534179688 391.018402099609,1340.27868652344 L391.018402099609,1310.03662109375 L391.018371582031,1310.03662109375 C391.018371582031,1305.33996582031 394.825714111328,1301.53271484375 399.522308349609,1301.53259277344 " stroke="none" fill="#E7E7E7" fill-rule="evenodd" stroke-width="0" fill-opacity="1" />
  <text x="7.80085563659668" y="21.5795059204102" dx="0" dy="0" font-family="Arial" font-size="8.76521746399272pt" fill="#000000" style="text-anchor:start" transform="matrix(0.750000 0.000000 0.000000 0.750000 391.018402099609 1301.53271484375)">Delete Non</text>
  <text x="80.5671920776367" y="21.5795059204102" dx="0" dy="0" font-family="Arial" font-size="8.76521746399272pt" fill="#000000" style="text-anchor:start" transform="matrix(0.750000 0.000000 0.000000 0.750000 391.018402099609 1301.53271484375)">-</text>
  <text x="14.8075218200684" y="37.6795043945313" dx="0" dy="0" font-family="Arial" font-size="8.76521746399272pt" fill="#000000" style="text-anchor:start" transform="matrix(0.750000 0.000000 0.000000 0.750000 391.018402099609 1301.53271484375)">Dissolved </text>
  <text x="10.1348552703857" y="53.7795066833496" dx="0" dy="0" font-family="Arial" font-size="8.76521746399272pt" fill="#000000" style="text-anchor:start" transform="matrix(0.750000 0.000000 0.000000 0.750000 391.018402099609 1301.53271484375)">Temp Layer</text>
  <path d="M399.522338867188,1301.53271484375 L456.764434814453,1301.53271484375 L456.764434814453,1301.53271484375 C461.461029052734,1301.53259277344 465.268371582031,1305.33996582031 465.268371582031,1310.03662109375 C465.268371582031,1310.03662109375 465.268371582031,1310.03662109375 465.268371582031,1310.03662109375 L465.268402099609,1310.03662109375 L465.268402099609,1340.27868652344 L465.268371582031,1340.27868652344 C465.268371582031,1344.97534179688 461.461029052734,1348.78259277344 456.764434814453,1348.78259277344 L456.764434814453,1348.78271484375 L399.522338867188,1348.78271484375 L399.522338867188,1348.78259277344 C394.825744628906,1348.78271484375 391.018402099609,1344.97534179688 391.018402099609,1340.27868652344 L391.018402099609,1310.03662109375 L391.018371582031,1310.03662109375 C391.018371582031,1305.33996582031 394.825714111328,1301.53271484375 399.522308349609,1301.53259277344 " stroke="none" fill="none" stroke-width="0.626087" stroke-opacity="0" />
  <path d="M455.987121582031,1383.75134277344 C455.987121582031,1393.53723144531 443.521057128906,1401.47009277344 428.143402099609,1401.47009277344 C412.765716552734,1401.47021484375 400.299652099609,1393.53723144531 400.299652099609,1383.75146484375 C400.299652099609,1383.75146484375 400.299652099609,1383.75146484375 400.299652099609,1383.75146484375 L400.299621582031,1383.75146484375 C400.299621582031,1373.96557617188 412.765686035156,1366.03271484375 428.143371582031,1366.03271484375 C443.521026611328,1366.03259277344 455.987121582031,1373.96557617188 455.987121582031,1383.75146484375 C455.987121582031,1383.75146484375 455.987121582031,1383.75146484375 455.987121582031,1383.75146484375 " stroke="none" fill="#E7E7E7" fill-rule="evenodd" stroke-width="0" fill-opacity="1" />
  <text x="17.6075229644775" y="21.7545051574707" dx="0" dy="0" font-family="Arial" font-size="8.76521746399272pt" fill="#000000" style="text-anchor:start" transform="matrix(0.750000 0.000000 0.000000 0.750000 400.299652099609 1366.03271484375)">Non</text>
  <text x="46.0138549804688" y="21.7545051574707" dx="0" dy="0" font-family="Arial" font-size="8.76521746399272pt" fill="#000000" style="text-anchor:start" transform="matrix(0.750000 0.000000 0.000000 0.750000 400.299652099609 1366.03271484375)">-</text>
  <text x="2.83085584640503" y="37.8545074462891" dx="0" dy="0" font-family="Arial" font-size="8.76521746399272pt" fill="#000000" style="text-anchor:start" transform="matrix(0.750000 0.000000 0.000000 0.750000 400.299652099609 1366.03271484375)">DIssolv</text>
  <text x="46.7815208435059" y="37.8545074462891" dx="0" dy="0" font-family="Arial" font-size="8.76521746399272pt" fill="#000000" style="text-anchor:start" transform="matrix(0.750000 0.000000 0.000000 0.750000 400.299652099609 1366.03271484375)"> ...</text>
  <path d="M455.987121582031,1383.75134277344 C455.987121582031,1393.53723144531 443.521057128906,1401.47009277344 428.143402099609,1401.47009277344 C412.765716552734,1401.47021484375 400.299652099609,1393.53723144531 400.299652099609,1383.75146484375 C400.299652099609,1383.75146484375 400.299652099609,1383.75146484375 400.299652099609,1383.75146484375 L400.299621582031,1383.75146484375 C400.299621582031,1373.96557617188 412.765686035156,1366.03271484375 428.143371582031,1366.03271484375 C443.521026611328,1366.03259277344 455.987121582031,1373.96557617188 455.987121582031,1383.75146484375 C455.987121582031,1383.75146484375 455.987121582031,1383.75146484375 455.987121582031,1383.75146484375 " stroke="none" fill="none" stroke-width="0.626087" stroke-opacity="0" />
  <path d="M485.022338867188,1301.53271484375 L542.264404296875,1301.53271484375 L542.264404296875,1301.53271484375 C546.960998535156,1301.53259277344 550.768371582031,1305.33996582031 550.768371582031,1310.03662109375 C550.768371582031,1310.03662109375 550.768371582031,1310.03662109375 550.768371582031,1310.03662109375 L550.768371582031,1310.03662109375 L550.768371582031,1340.27868652344 L550.768371582031,1340.27868652344 C550.768371582031,1344.97534179688 546.960998535156,1348.78259277344 542.264404296875,1348.78259277344 L542.264404296875,1348.78271484375 L485.022338867188,1348.78271484375 L485.022338867188,1348.78259277344 C480.325744628906,1348.78271484375 476.518402099609,1344.97534179688 476.518402099609,1340.27868652344 L476.518402099609,1310.03662109375 L476.518371582031,1310.03662109375 C476.518371582031,1305.33996582031 480.325714111328,1301.53271484375 485.022308349609,1301.53259277344 " stroke="none" fill="#E7E7E7" fill-rule="evenodd" stroke-width="0" fill-opacity="1" />
  <text x="24.9208564758301" y="21.5795059204102" dx="0" dy="0" font-family="Arial" font-size="8.76521746399272pt" fill="#000000" style="text-anchor:start" transform="matrix(0.750000 0.000000 0.000000 0.750000 476.518402099609 1301.53271484375)">Delete </text>
  <text x="14.8075218200684" y="37.6795043945313" dx="0" dy="0" font-family="Arial" font-size="8.76521746399272pt" fill="#000000" style="text-anchor:start" transform="matrix(0.750000 0.000000 0.000000 0.750000 476.518402099609 1301.53271484375)">Dissolved </text>
  <text x="10.1348552703857" y="53.7795066833496" dx="0" dy="0" font-family="Arial" font-size="8.76521746399272pt" fill="#000000" style="text-anchor:start" transform="matrix(0.750000 0.000000 0.000000 0.750000 476.518402099609 1301.53271484375)">Temp Layer</text>
  <path d="M485.022338867188,1301.53271484375 L542.264404296875,1301.53271484375 L542.264404296875,1301.53271484375 C546.960998535156,1301.53259277344 550.768371582031,1305.33996582031 550.768371582031,1310.03662109375 C550.768371582031,1310.03662109375 550.768371582031,1310.03662109375 550.768371582031,1310.03662109375 L550.768371582031,1310.03662109375 L550.768371582031,1340.27868652344 L550.768371582031,1340.27868652344 C550.768371582031,1344.97534179688 546.960998535156,1348.78259277344 542.264404296875,1348.78259277344 L542.264404296875,1348.78271484375 L485.022338867188,1348.78271484375 L485.022338867188,1348.78259277344 C480.325744628906,1348.78271484375 476.518402099609,1344.97534179688 476.518402099609,1340.27868652344 L476.518402099609,1310.03662109375 L476.518371582031,1310.03662109375 C476.518371582031,1305.33996582031 480.325714111328,1301.53271484375 485.022308349609,1301.53259277344 " stroke="none" fill="none" stroke-width="0.626087" stroke-opacity="0" />
  <path d="M541.487121582031,1383.75134277344 C541.487121582031,1393.53723144531 529.021057128906,1401.47009277344 513.643371582031,1401.47009277344 C498.265716552734,1401.47021484375 485.799652099609,1393.53723144531 485.799652099609,1383.75146484375 C485.799652099609,1383.75146484375 485.799652099609,1383.75146484375 485.799652099609,1383.75146484375 L485.799621582031,1383.75146484375 C485.799621582031,1373.96557617188 498.265686035156,1366.03271484375 513.643371582031,1366.03271484375 C529.02099609375,1366.03259277344 541.487121582031,1373.96557617188 541.487121582031,1383.75146484375 C541.487121582031,1383.75146484375 541.487121582031,1383.75146484375 541.487121582031,1383.75146484375 " stroke="none" fill="#E7E7E7" fill-rule="evenodd" stroke-width="0" fill-opacity="1" />
  <text x="2.43418884277344" y="21.7545051574707" dx="0" dy="0" font-family="Arial" font-size="8.76521746399272pt" fill="#000000" style="text-anchor:start" transform="matrix(0.750000 0.000000 0.000000 0.750000 485.799652099609 1366.03271484375)">Dissolved </text>
  <text x="8.65085601806641" y="37.8545074462891" dx="0" dy="0" font-family="Arial" font-size="8.76521746399272pt" fill="#000000" style="text-anchor:start" transform="matrix(0.750000 0.000000 0.000000 0.750000 485.799652099609 1366.03271484375)">Deleted</text>
  <path d="M541.487121582031,1383.75134277344 C541.487121582031,1393.53723144531 529.021057128906,1401.47009277344 513.643371582031,1401.47009277344 C498.265716552734,1401.47021484375 485.799652099609,1393.53723144531 485.799652099609,1383.75146484375 C485.799652099609,1383.75146484375 485.799652099609,1383.75146484375 485.799652099609,1383.75146484375 L485.799621582031,1383.75146484375 C485.799621582031,1373.96557617188 498.265686035156,1366.03271484375 513.643371582031,1366.03271484375 C529.02099609375,1366.03259277344 541.487121582031,1373.96557617188 541.487121582031,1383.75146484375 C541.487121582031,1383.75146484375 541.487121582031,1383.75146484375 541.487121582031,1383.75146484375 " stroke="none" fill="none" stroke-width="0.626087" stroke-opacity="0" />
  <path d="M223.829513549805,1230.9599609375 L352.173492431641,1230.9599609375 L352.173492431641,1230.9599609375 C354.244567871094,1230.95983886719 355.923492431641,1232.63879394531 355.923492431641,1234.70983886719 C355.923492431641,1234.70983886719 355.923492431641,1234.7099609375 355.923492431641,1234.7099609375 L355.923492431641,1234.7099609375 L355.923492431641,1424.12255859375 L355.923492431641,1424.12255859375 C355.923492431641,1426.19360351563 354.244567871094,1427.87255859375 352.173492431641,1427.87255859375 L352.173492431641,1427.87255859375 L223.829513549805,1427.87255859375 L223.829513549805,1427.87255859375 C221.758438110352,1427.87255859375 220.079513549805,1426.19360351563 220.079513549805,1424.12255859375 L220.079513549805,1234.7099609375 L220.079498291016,1234.7099609375 C220.079498291016,1232.63879394531 221.758438110352,1230.9599609375 223.829498291016,1230.95983886719 " stroke="none" fill="none" fill-rule="evenodd" stroke-width="0" fill-opacity="0" />
  <path d="M220.079513549805,1230.9599609375 L355.923492431641,1230.9599609375 L355.923492431641,1245.13317871094 L220.079513549805,1245.13317871094  z" stroke="none" fill="#F2E279" fill-rule="evenodd" stroke-width="0" fill-opacity="1" />
  <text x="-2.99200534820557" y="15.628324508667" dx="0" dy="0" font-family="Arial" font-size="8.76521746399272pt" fill="#000000" style="text-anchor:start" transform="matrix(0.750000 0.000000 0.000000 0.750000 220.079513549805 1230.9599609375)">Delete stat rows on last </text>
  <text x="140.578659057617" y="15.628324508667" dx="0" dy="0" font-family="Arial" font-size="8.76521746399272pt" fill="#000000" style="text-anchor:start" transform="matrix(0.750000 0.000000 0.000000 0.750000 220.079513549805 1230.9599609375)"> ...</text>
  <path d="M220.079513549805,1245.13317871094 L355.923492431641,1245.13317871094 " stroke="#F2E279" fill="none" stroke-width="5" stroke-opacity="1" />
  <path d="M223.829513549805,1230.9599609375 L352.173492431641,1230.9599609375 L352.173492431641,1230.9599609375 C354.244567871094,1230.95983886719 355.923492431641,1232.63879394531 355.923492431641,1234.70983886719 C355.923492431641,1234.70983886719 355.923492431641,1234.7099609375 355.923492431641,1234.7099609375 L355.923492431641,1234.7099609375 L355.923492431641,1424.12255859375 L355.923492431641,1424.12255859375 C355.923492431641,1426.19360351563 354.244567871094,1427.87255859375 352.173492431641,1427.87255859375 L352.173492431641,1427.87255859375 L223.829513549805,1427.87255859375 L223.829513549805,1427.87255859375 C221.758438110352,1427.87255859375 220.079513549805,1426.19360351563 220.079513549805,1424.12255859375 L220.079513549805,1234.7099609375 L220.079498291016,1234.7099609375 C220.079498291016,1232.63879394531 221.758438110352,1230.9599609375 223.829498291016,1230.95983886719 " stroke="#F2E279" fill="none" stroke-width="5" stroke-opacity="1" />
  <path d="M353.088836669922,1238.04650878906 C353.088836669922,1240.39477539063 351.185180664063,1242.29846191406 348.836883544922,1242.29846191406 C346.488555908203,1242.29846191406 344.584899902344,1240.39477539063 344.584899902344,1238.04650878906 C344.584899902344,1235.6982421875 346.488555908203,1233.79455566406 348.836883544922,1233.79455566406 C351.185180664063,1233.79455566406 353.088836669922,1235.6982421875 353.088836669922,1238.04650878906 " stroke="none" fill="url(#Gradient3)" fill-rule="evenodd" stroke-width="0" fill-opacity="1" />
  <path d="M353.088836669922,1238.04650878906 C353.088836669922,1240.39477539063 351.185180664063,1242.29846191406 348.836883544922,1242.29846191406 C346.488555908203,1242.29846191406 344.584899902344,1240.39477539063 344.584899902344,1238.04650878906 C344.584899902344,1235.6982421875 346.488555908203,1233.79455566406 348.836883544922,1233.79455566406 C351.185180664063,1233.79455566406 353.088836669922,1235.6982421875 353.088836669922,1238.04650878906 " stroke="#808080" fill="none" stroke-width="0.8347826" stroke-opacity="1" />
  <path d="M348.836883544922,1237.19616699219 L347.136108398438,1238.89685058594 " stroke="#000000" fill="none" stroke-width="0.8347826" stroke-opacity="1" />
  <path d="M348.836883544922,1237.19616699219 L350.537658691406,1238.89685058594 " stroke="#000000" fill="none" stroke-width="0.8347826" stroke-opacity="1" />
  <path d="M348.836883544922,1238.4482421875 L348.388275146484,1238.89685058594 " stroke="#000000" fill="none" stroke-width="0.8347826" stroke-opacity="1" />
  <path d="M348.836883544922,1238.4482421875 L349.285491943359,1238.89685058594 " stroke="#000000" fill="none" stroke-width="0.8347826" stroke-opacity="1" />
  <path d="M288.001495361328,1326.65319824219 C288.001495361328,1335.27819824219 288.001495361328,1335.27819824219 288.001495361328,1338.20324707031 " stroke="#6E6E6E" fill="none" stroke-width="1" stroke-opacity="1" />
  <path d="M288.001495361328,1343.90319824219 L285.781494140625,1338.203125 L290.221466064453,1338.203125 L288.001495361328,1343.90319824219 " stroke="none" fill="#6E6E6E" fill-rule="evenodd" stroke-width="0" fill-opacity="1" />
  <path d="M288.001495361328,1343.90319824219 L285.781494140625,1338.203125 L290.221466064453,1338.203125 L288.001495361328,1343.90319824219 " stroke="#6E6E6E" fill="none" stroke-width="1" stroke-opacity="1" />
  <path d="M239.744934082031,1254.13317871094 L336.258087158203,1254.13317871094 L336.258056640625,1254.13317871094 C340.954650878906,1254.13305664063 344.761993408203,1257.9404296875 344.761993408203,1262.63708496094 C344.761993408203,1262.63708496094 344.761993408203,1262.63708496094 344.761993408203,1262.63708496094 L344.762023925781,1262.63708496094 L344.762023925781,1318.14929199219 L344.761993408203,1318.14929199219 C344.761993408203,1322.84582519531 340.954650878906,1326.65319824219 336.258056640625,1326.65319824219 L336.258087158203,1326.65319824219 L239.744934082031,1326.65319824219 L239.744934082031,1326.65319824219 C235.04833984375,1326.65319824219 231.240997314453,1322.84582519531 231.240997314453,1318.14929199219 L231.240997314453,1262.63708496094 L231.240982055664,1262.63708496094 C231.240982055664,1257.9404296875 235.048324584961,1254.13317871094 239.744918823242,1254.13305664063 " stroke="none" fill="#E7E7E7" fill-rule="evenodd" stroke-width="0" fill-opacity="1" />
  <text x="14.530855178833" y="38.426212310791" dx="0" dy="0" font-family="Arial" font-size="8.76521746399272pt" fill="#000000" style="text-anchor:start" transform="matrix(0.750000 0.000000 0.000000 0.750000 231.240997314453 1254.13317871094)">Delete All Rows of </text>
  <text x="0.112522304058075" y="54.5262107849121" dx="0" dy="0" font-family="Arial" font-size="8.76521746399272pt" fill="#000000" style="text-anchor:start" transform="matrix(0.750000 0.000000 0.000000 0.750000 231.240997314453 1254.13317871094)">Appended Stats After it </text>
  <text x="8.6741886138916" y="70.6262130737305" dx="0" dy="0" font-family="Arial" font-size="8.76521746399272pt" fill="#000000" style="text-anchor:start" transform="matrix(0.750000 0.000000 0.000000 0.750000 231.240997314453 1254.13317871094)">is No Longer Needed</text>
  <path d="M239.744934082031,1254.13317871094 L336.258087158203,1254.13317871094 L336.258056640625,1254.13317871094 C340.954650878906,1254.13305664063 344.761993408203,1257.9404296875 344.761993408203,1262.63708496094 C344.761993408203,1262.63708496094 344.761993408203,1262.63708496094 344.761993408203,1262.63708496094 L344.762023925781,1262.63708496094 L344.762023925781,1318.14929199219 L344.761993408203,1318.14929199219 C344.761993408203,1322.84582519531 340.954650878906,1326.65319824219 336.258056640625,1326.65319824219 L336.258087158203,1326.65319824219 L239.744934082031,1326.65319824219 L239.744934082031,1326.65319824219 C235.04833984375,1326.65319824219 231.240997314453,1322.84582519531 231.240997314453,1318.14929199219 L231.240997314453,1262.63708496094 L231.240982055664,1262.63708496094 C231.240982055664,1257.9404296875 235.048324584961,1254.13317871094 239.744918823242,1254.13305664063 " stroke="none" fill="none" stroke-width="0.626087" stroke-opacity="0" />
  <path d="M346.923492431641,1381.38781738281 C346.923492431641,1402.08996582031 320.543212890625,1418.87243652344 288.001525878906,1418.87243652344 C255.459808349609,1418.87243652344 229.079513549805,1402.09008789063 229.079513549805,1381.38781738281 C229.079513549805,1381.38781738281 229.079513549805,1381.38781738281 229.079513549805,1381.38781738281 L229.079498291016,1381.38781738281 C229.079483032227,1360.68566894531 255.459732055664,1343.90319824219 288.001434326172,1343.90319824219 C320.543182373047,1343.90307617188 346.923461914063,1360.685546875 346.923492431641,1381.38781738281 C346.923492431641,1381.38781738281 346.923492431641,1381.38781738281 346.923492431641,1381.38781738281 " stroke="none" fill="#E7E7E7" fill-rule="evenodd" stroke-width="0" fill-opacity="1" />
  <text x="28.4258556365967" y="40.0590782165527" dx="0" dy="0" font-family="Arial" font-size="8.76521746399272pt" fill="#000000" style="text-anchor:start" transform="matrix(0.750000 0.000000 0.000000 0.750000 229.079513549805 1343.90319824219)">Stats Template </text>
  <text x="10.645188331604" y="56.1590766906738" dx="0" dy="0" font-family="Arial" font-size="8.76521746399272pt" fill="#000000" style="text-anchor:start" transform="matrix(0.750000 0.000000 0.000000 0.750000 229.079513549805 1343.90319824219)">Available for another </text>
  <text x="27.5238571166992" y="72.2590789794922" dx="0" dy="0" font-family="Arial" font-size="8.76521746399272pt" fill="#000000" style="text-anchor:start" transform="matrix(0.750000 0.000000 0.000000 0.750000 229.079513549805 1343.90319824219)">run if necessary</text>
  <path d="M346.923492431641,1381.38781738281 C346.923492431641,1402.08996582031 320.543212890625,1418.87243652344 288.001525878906,1418.87243652344 C255.459808349609,1418.87243652344 229.079513549805,1402.09008789063 229.079513549805,1381.38781738281 C229.079513549805,1381.38781738281 229.079513549805,1381.38781738281 229.079513549805,1381.38781738281 L229.079498291016,1381.38781738281 C229.079483032227,1360.68566894531 255.459732055664,1343.90319824219 288.001434326172,1343.90319824219 C320.543182373047,1343.90307617188 346.923461914063,1360.685546875 346.923492431641,1381.38781738281 C346.923492431641,1381.38781738281 346.923492431641,1381.38781738281 346.923492431641,1381.38781738281 " stroke="none" fill="none" stroke-width="0.626087" stroke-opacity="0" />
  <path d="M125.033325195313,101.34375 L145.142700195313,126.9375 L185.361450195313,126.9375 L205.470825195313,101.34375 L185.361450195313,75.75 L145.142700195313,75.75 L125.033325195313,101.34375 " stroke="none" fill="#F0B871" fill-rule="evenodd" stroke-width="0" fill-opacity="1" />
  <text x="16.5921897888184" y="32.2545051574707" dx="0" dy="0" font-family="Arial" font-size="8.76521746399272pt" fill="#000000" style="text-anchor:start" transform="matrix(0.750000 0.000000 0.000000 0.750000 125.033325195313 75.75)">Iterate Row </text>
  <text x="20.8658561706543" y="48.3545036315918" dx="0" dy="0" font-family="Arial" font-size="8.76521746399272pt" fill="#000000" style="text-anchor:start" transform="matrix(0.750000 0.000000 0.000000 0.750000 125.033325195313 75.75)">Selection</text>
  <path d="M125.033325195313,101.34375 L145.142700195313,126.9375 L185.361450195313,126.9375 L205.470825195313,101.34375 L185.361450195313,75.75 L145.142700195313,75.75 L125.033325195313,101.34375 " stroke="none" fill="none" stroke-width="0.626087" stroke-opacity="0" />
  <path d="M248.548934936523,167.812484741211 C248.548934936523,180.860214233398 231.927505493164,191.437484741211 211.423950195313,191.437484741211 C190.920379638672,191.4375 174.298950195313,180.860229492188 174.298950195313,167.8125 C174.298950195313,167.8125 174.298950195313,167.8125 174.298950195313,167.8125 L174.298950195313,167.812515258789 C174.298919677734,154.764785766602 190.920349121094,144.1875 211.423904418945,144.1875 C231.927474975586,144.187484741211 248.548919677734,154.764755249023 248.548934936523,167.8125 C248.548934936523,167.8125 248.548934936523,167.8125 248.548934936523,167.8125 " stroke="none" fill="#83CC7C" fill-rule="evenodd" stroke-width="0" fill-opacity="1" />
  <text x="10.2525215148926" y="37.6795043945313" dx="0" dy="0" font-family="Arial" font-size="8.76521746399272pt" fill="#000000" style="text-anchor:start" transform="matrix(0.750000 0.000000 0.000000 0.750000 174.298950195313 144.1875)">BufferLevel</text>
  <path d="M248.548934936523,167.812484741211 C248.548934936523,180.860214233398 231.927505493164,191.437484741211 211.423950195313,191.437484741211 C190.920379638672,191.4375 174.298950195313,180.860229492188 174.298950195313,167.8125 C174.298950195313,167.8125 174.298950195313,167.8125 174.298950195313,167.8125 L174.298950195313,167.812515258789 C174.298919677734,154.764785766602 190.920349121094,144.1875 211.423904418945,144.1875 C231.927474975586,144.187484741211 248.548919677734,154.764755249023 248.548934936523,167.8125 C248.548934936523,167.8125 248.548934936523,167.8125 248.548934936523,167.8125 " stroke="none" fill="none" stroke-width="0.626087" stroke-opacity="0" />
  <path d="M146.923934936523,808.088134765625 C146.923934936523,817.873962402344 134.457870483398,825.806884765625 119.080207824707,825.806884765625 C103.702529907227,825.806945800781 91.2364501953125,817.873962402344 91.2364501953125,808.088195800781 C91.2364501953125,808.088195800781 91.2364501953125,808.088195800781 91.2364501953125,808.088195800781 L91.236442565918,808.088195800781 C91.2364349365234,798.302368164063 103.702499389648,790.369445800781 119.080177307129,790.369445800781 C134.45783996582,790.369384765625 146.923919677734,798.302368164063 146.923934936523,808.088195800781 C146.923934936523,808.088195800781 146.923934936523,808.088195800781 146.923934936523,808.088195800781 " stroke="none" fill="#82CAED" fill-rule="evenodd" stroke-width="0" fill-opacity="1" />
  <text x="9.43418884277344" y="21.7545051574707" dx="0" dy="0" font-family="Arial" font-size="8.76521746399272pt" fill="#000000" style="text-anchor:start" transform="matrix(0.750000 0.000000 0.000000 0.750000 91.2364501953125 790.369445800781)">Current </text>
  <text x="7.6125226020813" y="37.8545074462891" dx="0" dy="0" font-family="Arial" font-size="8.76521746399272pt" fill="#000000" style="text-anchor:start" transform="matrix(0.750000 0.000000 0.000000 0.750000 91.2364501953125 790.369445800781)">BufferID</text>
  <path d="M146.923934936523,808.088134765625 C146.923934936523,817.873962402344 134.457870483398,825.806884765625 119.080207824707,825.806884765625 C103.702529907227,825.806945800781 91.2364501953125,817.873962402344 91.2364501953125,808.088195800781 C91.2364501953125,808.088195800781 91.2364501953125,808.088195800781 91.2364501953125,808.088195800781 L91.236442565918,808.088195800781 C91.2364349365234,798.302368164063 103.702499389648,790.369445800781 119.080177307129,790.369445800781 C134.45783996582,790.369384765625 146.923919677734,798.302368164063 146.923934936523,808.088195800781 C146.923934936523,808.088195800781 146.923934936523,808.088195800781 146.923934936523,808.088195800781 " stroke="none" fill="none" stroke-width="0.626087" stroke-opacity="0" />
  <path d="M450.552886962891,208.6875 L507.794982910156,208.6875 L507.794982910156,208.6875 C512.491577148438,208.687484741211 516.298889160156,212.494827270508 516.298889160156,217.191421508789 C516.298889160156,217.191421508789 516.298889160156,217.191436767578 516.298889160156,217.191436767578 L516.298950195313,217.191436767578 L516.298950195313,247.433563232422 L516.298889160156,247.433547973633 C516.298889160156,252.130142211914 512.491577148438,255.937484741211 507.794982910156,255.937484741211 L507.794982910156,255.9375 L450.552886962891,255.9375 L450.552886962891,255.937484741211 C445.856292724609,255.9375 442.048950195313,252.130157470703 442.048950195313,247.433563232422 L442.048950195313,217.191436767578 L442.048919677734,217.191436767578 C442.048919677734,212.494842529297 445.856262207031,208.6875 450.552856445313,208.687484741211 " stroke="none" fill="#F2E279" fill-rule="evenodd" stroke-width="0" fill-opacity="1" />
  <text x="33.0941886901855" y="37.6795043945313" dx="0" dy="0" font-family="Arial" font-size="8.76521746399272pt" fill="#000000" style="text-anchor:start" transform="matrix(0.750000 0.000000 0.000000 0.750000 442.048950195313 208.6875)">Clip</text>
  <path d="M450.552886962891,208.6875 L507.794982910156,208.6875 L507.794982910156,208.6875 C512.491577148438,208.687484741211 516.298889160156,212.494827270508 516.298889160156,217.191421508789 C516.298889160156,217.191421508789 516.298889160156,217.191436767578 516.298889160156,217.191436767578 L516.298950195313,217.191436767578 L516.298950195313,247.433563232422 L516.298889160156,247.433547973633 C516.298889160156,252.130142211914 512.491577148438,255.937484741211 507.794982910156,255.937484741211 L507.794982910156,255.9375 L450.552886962891,255.9375 L450.552886962891,255.937484741211 C445.856292724609,255.9375 442.048950195313,252.130157470703 442.048950195313,247.433563232422 L442.048950195313,217.191436767578 L442.048919677734,217.191436767578 C442.048919677734,212.494842529297 445.856262207031,208.6875 450.552856445313,208.687484741211 " stroke="none" fill="none" stroke-width="0.626087" stroke-opacity="0" />
  <path d="M516.298889160156,296.812469482422 C516.298889160156,309.860198974609 499.677490234375,320.437469482422 479.173950195313,320.437469482422 C458.670379638672,320.4375 442.048950195313,309.860229492188 442.048950195313,296.8125 C442.048950195313,296.8125 442.048950195313,296.8125 442.048950195313,296.8125 L442.048950195313,296.8125 C442.048919677734,283.764770507813 458.670349121094,273.1875 479.173889160156,273.1875 C499.677459716797,273.187469482422 516.298889160156,283.764739990234 516.298889160156,296.8125 C516.298889160156,296.8125 516.298889160156,296.8125 516.298889160156,296.8125 " stroke="none" fill="#83CC7C" fill-rule="evenodd" stroke-width="0" fill-opacity="1" />
  <text x="9.35552215576172" y="29.6295051574707" dx="0" dy="0" font-family="Arial" font-size="8.76521746399272pt" fill="#000000" style="text-anchor:start" transform="matrix(0.750000 0.000000 0.000000 0.750000 442.048950195313 273.1875)">Intermediary </text>
  <text x="23.3641891479492" y="45.7295074462891" dx="0" dy="0" font-family="Arial" font-size="8.76521746399272pt" fill="#000000" style="text-anchor:start" transform="matrix(0.750000 0.000000 0.000000 0.750000 442.048950195313 273.1875)">Clip #1</text>
  <path d="M516.298889160156,296.812469482422 C516.298889160156,309.860198974609 499.677490234375,320.437469482422 479.173950195313,320.437469482422 C458.670379638672,320.4375 442.048950195313,309.860229492188 442.048950195313,296.8125 C442.048950195313,296.8125 442.048950195313,296.8125 442.048950195313,296.8125 L442.048950195313,296.8125 C442.048919677734,283.764770507813 458.670349121094,273.1875 479.173889160156,273.1875 C499.677459716797,273.187469482422 516.298889160156,283.764739990234 516.298889160156,296.8125 C516.298889160156,296.8125 516.298889160156,296.8125 516.298889160156,296.8125 " stroke="none" fill="none" stroke-width="0.626087" stroke-opacity="0" />
  <path d="M516.298889160156,167.812484741211 C516.298889160156,180.860214233398 499.677490234375,191.437484741211 479.173950195313,191.437484741211 C458.670379638672,191.4375 442.048950195313,180.860229492188 442.048950195313,167.8125 C442.048950195313,167.8125 442.048950195313,167.8125 442.048950195313,167.8125 L442.048950195313,167.812515258789 C442.048919677734,154.764785766602 458.670349121094,144.1875 479.173889160156,144.1875 C499.677459716797,144.187484741211 516.298889160156,154.764755249023 516.298889160156,167.8125 C516.298889160156,167.8125 516.298889160156,167.8125 516.298889160156,167.8125 " stroke="none" fill="#70AECC" fill-rule="evenodd" stroke-width="0" fill-opacity="1" />
  <text x="21.4208564758301" y="29.6295051574707" dx="0" dy="0" font-family="Arial" font-size="8.76521746399272pt" fill="#000000" style="text-anchor:start" transform="matrix(0.750000 0.000000 0.000000 0.750000 442.048950195313 144.1875)">Census </text>
  <text x="24.9225234985352" y="45.7295074462891" dx="0" dy="0" font-family="Arial" font-size="8.76521746399272pt" fill="#000000" style="text-anchor:start" transform="matrix(0.750000 0.000000 0.000000 0.750000 442.048950195313 144.1875)">Blocks</text>
  <path d="M516.298889160156,167.812484741211 C516.298889160156,180.860214233398 499.677490234375,191.437484741211 479.173950195313,191.437484741211 C458.670379638672,191.4375 442.048950195313,180.860229492188 442.048950195313,167.8125 C442.048950195313,167.8125 442.048950195313,167.8125 442.048950195313,167.8125 L442.048950195313,167.812515258789 C442.048919677734,154.764785766602 458.670349121094,144.1875 479.173889160156,144.1875 C499.677459716797,144.187484741211 516.298889160156,154.764755249023 516.298889160156,167.8125 C516.298889160156,167.8125 516.298889160156,167.8125 516.298889160156,167.8125 " stroke="none" fill="none" stroke-width="0.626087" stroke-opacity="0" />
  <path d="M450.552886962891,614.614868164063 L507.794982910156,614.614868164063 L507.794982910156,614.614868164063 C512.491577148438,614.614807128906 516.298889160156,618.422180175781 516.298889160156,623.118774414063 C516.298889160156,623.118774414063 516.298889160156,623.118774414063 516.298889160156,623.118774414063 L516.298950195313,623.118774414063 L516.298950195313,653.360900878906 L516.298889160156,653.360900878906 C516.298889160156,658.057495117188 512.491577148438,661.864807128906 507.794982910156,661.864807128906 L507.794982910156,661.864868164063 L450.552886962891,661.864868164063 L450.552886962891,661.864807128906 C445.856292724609,661.864868164063 442.048950195313,658.057495117188 442.048950195313,653.360900878906 L442.048950195313,623.118774414063 L442.048919677734,623.118774414063 C442.048919677734,618.422180175781 445.856262207031,614.614868164063 450.552856445313,614.614807128906 " stroke="none" fill="#F2E279" fill-rule="evenodd" stroke-width="0" fill-opacity="1" />
  <text x="18.7008571624756" y="37.6795043945313" dx="0" dy="0" font-family="Arial" font-size="8.76521746399272pt" fill="#000000" style="text-anchor:start" transform="matrix(0.750000 0.000000 0.000000 0.750000 442.048950195313 614.614868164063)">Dissolve</text>
  <path d="M450.552886962891,614.614868164063 L507.794982910156,614.614868164063 L507.794982910156,614.614868164063 C512.491577148438,614.614807128906 516.298889160156,618.422180175781 516.298889160156,623.118774414063 C516.298889160156,623.118774414063 516.298889160156,623.118774414063 516.298889160156,623.118774414063 L516.298950195313,623.118774414063 L516.298950195313,653.360900878906 L516.298889160156,653.360900878906 C516.298889160156,658.057495117188 512.491577148438,661.864807128906 507.794982910156,661.864807128906 L507.794982910156,661.864868164063 L450.552886962891,661.864868164063 L450.552886962891,661.864807128906 C445.856292724609,661.864868164063 442.048950195313,658.057495117188 442.048950195313,653.360900878906 L442.048950195313,623.118774414063 L442.048919677734,623.118774414063 C442.048919677734,618.422180175781 445.856262207031,614.614868164063 450.552856445313,614.614807128906 " stroke="none" fill="none" stroke-width="0.626087" stroke-opacity="0" />
  <path d="M516.298889160156,723.164001464844 C516.298889160156,736.211730957031 499.677490234375,746.789001464844 479.173950195313,746.789001464844 C458.670379638672,746.7890625 442.048950195313,736.211791992188 442.048950195313,723.1640625 C442.048950195313,723.1640625 442.048950195313,723.1640625 442.048950195313,723.1640625 L442.048950195313,723.1640625 C442.048919677734,710.116333007813 458.670349121094,699.5390625 479.173889160156,699.5390625 C499.677459716797,699.539001464844 516.298889160156,710.116271972656 516.298889160156,723.1640625 C516.298889160156,723.1640625 516.298889160156,723.1640625 516.298889160156,723.1640625 " stroke="none" fill="#83CC7C" fill-rule="evenodd" stroke-width="0" fill-opacity="1" />
  <text x="14.8075218200684" y="29.6295051574707" dx="0" dy="0" font-family="Arial" font-size="8.76521746399272pt" fill="#000000" style="text-anchor:start" transform="matrix(0.750000 0.000000 0.000000 0.750000 442.048950195313 699.5390625)">Dissolved </text>
  <text x="2.8591890335083" y="45.7295074462891" dx="0" dy="0" font-family="Arial" font-size="8.76521746399272pt" fill="#000000" style="text-anchor:start" transform="matrix(0.750000 0.000000 0.000000 0.750000 442.048950195313 699.5390625)">Buffer Region</text>
  <path d="M516.298889160156,723.164001464844 C516.298889160156,736.211730957031 499.677490234375,746.789001464844 479.173950195313,746.789001464844 C458.670379638672,746.7890625 442.048950195313,736.211791992188 442.048950195313,723.1640625 C442.048950195313,723.1640625 442.048950195313,723.1640625 442.048950195313,723.1640625 L442.048950195313,723.1640625 C442.048919677734,710.116333007813 458.670349121094,699.5390625 479.173889160156,699.5390625 C499.677459716797,699.539001464844 516.298889160156,710.116271972656 516.298889160156,723.1640625 C516.298889160156,723.1640625 516.298889160156,723.1640625 516.298889160156,723.1640625 " stroke="none" fill="none" stroke-width="0.626087" stroke-opacity="0" />
  <path d="M450.552886962891,337.6875 L507.794982910156,337.6875 L507.794982910156,337.6875 C512.491577148438,337.687469482422 516.298889160156,341.494812011719 516.298889160156,346.19140625 C516.298889160156,346.19140625 516.298889160156,346.191436767578 516.298889160156,346.191436767578 L516.298950195313,346.191436767578 L516.298950195313,376.433563232422 L516.298889160156,376.433532714844 C516.298889160156,381.130126953125 512.491577148438,384.937469482422 507.794982910156,384.937469482422 L507.794982910156,384.9375 L450.552886962891,384.9375 L450.552886962891,384.937469482422 C445.856292724609,384.9375 442.048950195313,381.130157470703 442.048950195313,376.433563232422 L442.048950195313,346.191436767578 L442.048919677734,346.191436767578 C442.048919677734,341.494842529297 445.856262207031,337.6875 450.552856445313,337.687469482422 " stroke="none" fill="#F2E279" fill-rule="evenodd" stroke-width="0" fill-opacity="1" />
  <text x="12.4658555984497" y="29.6295051574707" dx="0" dy="0" font-family="Arial" font-size="8.76521746399272pt" fill="#000000" style="text-anchor:start" transform="matrix(0.750000 0.000000 0.000000 0.750000 442.048950195313 337.6875)">Add Fields </text>
  <text x="19.0905227661133" y="45.7295074462891" dx="0" dy="0" font-family="Arial" font-size="8.76521746399272pt" fill="#000000" style="text-anchor:start" transform="matrix(0.750000 0.000000 0.000000 0.750000 442.048950195313 337.6875)">(multiple)</text>
  <path d="M450.552886962891,337.6875 L507.794982910156,337.6875 L507.794982910156,337.6875 C512.491577148438,337.687469482422 516.298889160156,341.494812011719 516.298889160156,346.19140625 C516.298889160156,346.19140625 516.298889160156,346.191436767578 516.298889160156,346.191436767578 L516.298950195313,346.191436767578 L516.298950195313,376.433563232422 L516.298889160156,376.433532714844 C516.298889160156,381.130126953125 512.491577148438,384.937469482422 507.794982910156,384.937469482422 L507.794982910156,384.9375 L450.552886962891,384.9375 L450.552886962891,384.937469482422 C445.856292724609,384.9375 442.048950195313,381.130157470703 442.048950195313,376.433563232422 L442.048950195313,346.191436767578 L442.048919677734,346.191436767578 C442.048919677734,341.494842529297 445.856262207031,337.6875 450.552856445313,337.687469482422 " stroke="none" fill="none" stroke-width="0.626087" stroke-opacity="0" />
  <path d="M516.298889160156,425.812469482422 C516.298889160156,438.860198974609 499.677490234375,449.437469482422 479.173950195313,449.437469482422 C458.670379638672,449.4375 442.048950195313,438.860229492188 442.048950195313,425.8125 C442.048950195313,425.8125 442.048950195313,425.8125 442.048950195313,425.8125 L442.048950195313,425.8125 C442.048919677734,412.764770507813 458.670349121094,402.1875 479.173889160156,402.1875 C499.677459716797,402.187469482422 516.298889160156,412.764739990234 516.298889160156,425.8125 C516.298889160156,425.8125 516.298889160156,425.8125 516.298889160156,425.8125 " stroke="none" fill="#83CC7C" fill-rule="evenodd" stroke-width="0" fill-opacity="1" />
  <text x="9.35552215576172" y="29.6295051574707" dx="0" dy="0" font-family="Arial" font-size="8.76521746399272pt" fill="#000000" style="text-anchor:start" transform="matrix(0.750000 0.000000 0.000000 0.750000 442.048950195313 402.1875)">Intermediary </text>
  <text x="23.3641891479492" y="45.7295074462891" dx="0" dy="0" font-family="Arial" font-size="8.76521746399272pt" fill="#000000" style="text-anchor:start" transform="matrix(0.750000 0.000000 0.000000 0.750000 442.048950195313 402.1875)">Clip #2</text>
  <path d="M516.298889160156,425.812469482422 C516.298889160156,438.860198974609 499.677490234375,449.437469482422 479.173950195313,449.437469482422 C458.670379638672,449.4375 442.048950195313,438.860229492188 442.048950195313,425.8125 C442.048950195313,425.8125 442.048950195313,425.8125 442.048950195313,425.8125 L442.048950195313,425.8125 C442.048919677734,412.764770507813 458.670349121094,402.1875 479.173889160156,402.1875 C499.677459716797,402.187469482422 516.298889160156,412.764739990234 516.298889160156,425.8125 C516.298889160156,425.8125 516.298889160156,425.8125 516.298889160156,425.8125 " stroke="none" fill="none" stroke-width="0.626087" stroke-opacity="0" />
  <path d="M361.302886962891,784.463195800781 L418.544982910156,784.463195800781 L418.544982910156,784.463195800781 C423.241577148438,784.463134765625 427.048919677734,788.2705078125 427.048919677734,792.967102050781 C427.048919677734,792.967102050781 427.048919677734,792.967102050781 427.048919677734,792.967102050781 L427.048950195313,792.967102050781 L427.048950195313,823.209228515625 L427.048919677734,823.209228515625 C427.048919677734,827.905822753906 423.241577148438,831.713134765625 418.544982910156,831.713134765625 L418.544982910156,831.713195800781 L361.302886962891,831.713195800781 L361.302886962891,831.713134765625 C356.606292724609,831.713195800781 352.798950195313,827.905822753906 352.798950195313,823.209228515625 L352.798950195313,792.967102050781 L352.798919677734,792.967102050781 C352.798919677734,788.2705078125 356.606262207031,784.463195800781 361.302856445313,784.463134765625 " stroke="none" fill="#F2E279" fill-rule="evenodd" stroke-width="0" fill-opacity="1" />
  <text x="21.4058570861816" y="37.6795043945313" dx="0" dy="0" font-family="Arial" font-size="8.76521746399272pt" fill="#000000" style="text-anchor:start" transform="matrix(0.750000 0.000000 0.000000 0.750000 352.798950195313 784.463195800781)">Append</text>
  <path d="M361.302886962891,784.463195800781 L418.544982910156,784.463195800781 L418.544982910156,784.463195800781 C423.241577148438,784.463134765625 427.048919677734,788.2705078125 427.048919677734,792.967102050781 C427.048919677734,792.967102050781 427.048919677734,792.967102050781 427.048919677734,792.967102050781 L427.048950195313,792.967102050781 L427.048950195313,823.209228515625 L427.048919677734,823.209228515625 C427.048919677734,827.905822753906 423.241577148438,831.713134765625 418.544982910156,831.713134765625 L418.544982910156,831.713195800781 L361.302886962891,831.713195800781 L361.302886962891,831.713134765625 C356.606292724609,831.713195800781 352.798950195313,827.905822753906 352.798950195313,823.209228515625 L352.798950195313,792.967102050781 L352.798919677734,792.967102050781 C352.798919677734,788.2705078125 356.606262207031,784.463195800781 361.302856445313,784.463134765625 " stroke="none" fill="none" stroke-width="0.626087" stroke-opacity="0" />
  <path d="M427.048919677734,926.502868652344 C427.048919677734,939.550598144531 410.427490234375,950.127868652344 389.923950195313,950.127868652344 C369.420379638672,950.1279296875 352.798950195313,939.550659179688 352.798950195313,926.5029296875 C352.798950195313,926.5029296875 352.798950195313,926.5029296875 352.798950195313,926.5029296875 L352.798950195313,926.5029296875 C352.798919677734,913.455200195313 369.420349121094,902.8779296875 389.923889160156,902.8779296875 C410.427459716797,902.877868652344 427.048919677734,913.455139160156 427.048919677734,926.5029296875 C427.048919677734,926.5029296875 427.048919677734,926.5029296875 427.048919677734,926.5029296875 " stroke="none" fill="#83CC7C" fill-rule="evenodd" stroke-width="0" fill-opacity="1" />
  <text x="13.6191883087158" y="29.6295051574707" dx="0" dy="0" font-family="Arial" font-size="8.76521746399272pt" fill="#000000" style="text-anchor:start" transform="matrix(0.750000 0.000000 0.000000 0.750000 352.798950195313 902.8779296875)">Appended </text>
  <text x="29.5858554840088" y="45.7295074462891" dx="0" dy="0" font-family="Arial" font-size="8.76521746399272pt" fill="#000000" style="text-anchor:start" transform="matrix(0.750000 0.000000 0.000000 0.750000 352.798950195313 902.8779296875)">Stats</text>
  <path d="M427.048919677734,926.502868652344 C427.048919677734,939.550598144531 410.427490234375,950.127868652344 389.923950195313,950.127868652344 C369.420379638672,950.1279296875 352.798950195313,939.550659179688 352.798950195313,926.5029296875 C352.798950195313,926.5029296875 352.798950195313,926.5029296875 352.798950195313,926.5029296875 L352.798950195313,926.5029296875 C352.798919677734,913.455200195313 369.420349121094,902.8779296875 389.923889160156,902.8779296875 C410.427459716797,902.877868652344 427.048919677734,913.455139160156 427.048919677734,926.5029296875 C427.048919677734,926.5029296875 427.048919677734,926.5029296875 427.048919677734,926.5029296875 " stroke="none" fill="none" stroke-width="0.626087" stroke-opacity="0" />
  <path d="M427.048919677734,723.164001464844 C427.048919677734,747.491638183594 410.427490234375,767.213134765625 389.923950195313,767.213134765625 C369.420379638672,767.213134765625 352.798950195313,747.49169921875 352.798950195313,723.164001464844 C352.798950195313,723.164001464844 352.798950195313,723.164001464844 352.798950195313,723.164001464844 L352.798950195313,723.164001464844 C352.798919677734,698.836364746094 369.420349121094,679.114868164063 389.923889160156,679.114868164063 C410.427459716797,679.114807128906 427.048919677734,698.836303710938 427.048919677734,723.164001464844 C427.048919677734,723.164001464844 427.048919677734,723.164001464844 427.048919677734,723.164001464844 " stroke="none" fill="#70AECC" fill-rule="evenodd" stroke-width="0" fill-opacity="1" />
  <text x="26.9891891479492" y="40.7617073059082" dx="0" dy="0" font-family="Arial" font-size="8.76521746399272pt" fill="#000000" style="text-anchor:start" transform="matrix(0.750000 0.000000 0.000000 0.750000 352.798950195313 679.114868164063)">Buffer </text>
  <text x="17.5325222015381" y="56.8617057800293" dx="0" dy="0" font-family="Arial" font-size="8.76521746399272pt" fill="#000000" style="text-anchor:start" transform="matrix(0.750000 0.000000 0.000000 0.750000 352.798950195313 679.114868164063)">Statistics </text>
  <text x="18.3015232086182" y="72.9617080688477" dx="0" dy="0" font-family="Arial" font-size="8.76521746399272pt" fill="#000000" style="text-anchor:start" transform="matrix(0.750000 0.000000 0.000000 0.750000 352.798950195313 679.114868164063)">Template </text>
  <text x="27.6508560180664" y="89.0617065429688" dx="0" dy="0" font-family="Arial" font-size="8.76521746399272pt" fill="#000000" style="text-anchor:start" transform="matrix(0.750000 0.000000 0.000000 0.750000 352.798950195313 679.114868164063)">Class</text>
  <path d="M427.048919677734,723.164001464844 C427.048919677734,747.491638183594 410.427490234375,767.213134765625 389.923950195313,767.213134765625 C369.420379638672,767.213134765625 352.798950195313,747.49169921875 352.798950195313,723.164001464844 C352.798950195313,723.164001464844 352.798950195313,723.164001464844 352.798950195313,723.164001464844 L352.798950195313,723.164001464844 C352.798919677734,698.836364746094 369.420349121094,679.114868164063 389.923889160156,679.114868164063 C410.427459716797,679.114807128906 427.048919677734,698.836303710938 427.048919677734,723.164001464844 C427.048919677734,723.164001464844 427.048919677734,723.164001464844 427.048919677734,723.164001464844 " stroke="none" fill="none" stroke-width="0.626087" stroke-opacity="0" />
  <path d="M450.552886962891,466.6875 L507.794982910156,466.6875 L507.794982910156,466.6875 C512.491577148438,466.687469482422 516.298889160156,470.494812011719 516.298889160156,475.19140625 C516.298889160156,475.19140625 516.298889160156,475.191436767578 516.298889160156,475.191436767578 L516.298950195313,475.191436767578 L516.298950195313,505.433563232422 L516.298889160156,505.433532714844 C516.298889160156,510.130126953125 512.491577148438,513.937438964844 507.794982910156,513.937438964844 L507.794982910156,513.9375 L450.552886962891,513.9375 L450.552886962891,513.937438964844 C445.856292724609,513.9375 442.048950195313,510.130157470703 442.048950195313,505.433563232422 L442.048950195313,475.191436767578 L442.048919677734,475.191436767578 C442.048919677734,470.494842529297 445.856262207031,466.6875 450.552856445313,466.687469482422 " stroke="none" fill="#F2E279" fill-rule="evenodd" stroke-width="0" fill-opacity="1" />
  <text x="15.9708557128906" y="21.5795059204102" dx="0" dy="0" font-family="Arial" font-size="8.76521746399272pt" fill="#000000" style="text-anchor:start" transform="matrix(0.750000 0.000000 0.000000 0.750000 442.048950195313 466.6875)">Calculate </text>
  <text x="27.2578563690186" y="37.6795043945313" dx="0" dy="0" font-family="Arial" font-size="8.76521746399272pt" fill="#000000" style="text-anchor:start" transform="matrix(0.750000 0.000000 0.000000 0.750000 442.048950195313 466.6875)">Fields </text>
  <text x="19.0905227661133" y="53.7795066833496" dx="0" dy="0" font-family="Arial" font-size="8.76521746399272pt" fill="#000000" style="text-anchor:start" transform="matrix(0.750000 0.000000 0.000000 0.750000 442.048950195313 466.6875)">(multiple)</text>
  <path d="M450.552886962891,466.6875 L507.794982910156,466.6875 L507.794982910156,466.6875 C512.491577148438,466.687469482422 516.298889160156,470.494812011719 516.298889160156,475.19140625 C516.298889160156,475.19140625 516.298889160156,475.191436767578 516.298889160156,475.191436767578 L516.298950195313,475.191436767578 L516.298950195313,505.433563232422 L516.298889160156,505.433532714844 C516.298889160156,510.130126953125 512.491577148438,513.937438964844 507.794982910156,513.937438964844 L507.794982910156,513.9375 L450.552886962891,513.9375 L450.552886962891,513.937438964844 C445.856292724609,513.9375 442.048950195313,510.130157470703 442.048950195313,505.433563232422 L442.048950195313,475.191436767578 L442.048919677734,475.191436767578 C442.048919677734,470.494842529297 445.856262207031,466.6875 450.552856445313,466.687469482422 " stroke="none" fill="none" stroke-width="0.626087" stroke-opacity="0" />
  <path d="M552.224365234375,564.276184082031 C552.224365234375,582.550537109375 519.5185546875,597.364868164063 479.173950195313,597.364868164063 C438.829315185547,597.364868164063 406.123504638672,582.550537109375 406.123504638672,564.276184082031 C406.123504638672,564.276184082031 406.123504638672,564.276184082031 406.123504638672,564.276184082031 L406.123474121094,564.276184082031 C406.123443603516,546.001831054688 438.829223632813,531.1875 479.173889160156,531.1875 C519.518493652344,531.187438964844 552.224304199219,546.001770019531 552.224365234375,564.276184082031 C552.224365234375,564.276184082031 552.224365234375,564.276184082031 552.224365234375,564.276184082031 " stroke="none" fill="#83CC7C" fill-rule="evenodd" stroke-width="0" fill-opacity="1" />
  <text x="13.6745223999023" y="34.1977653503418" dx="0" dy="0" font-family="Arial" font-size="8.76521746399272pt" fill="#000000" style="text-anchor:start" transform="matrix(0.750000 0.000000 0.000000 0.750000 406.123504638672 531.1875)">Final Clip of All Contained </text>
  <text x="18.8675231933594" y="50.2977638244629" dx="0" dy="0" font-family="Arial" font-size="8.76521746399272pt" fill="#000000" style="text-anchor:start" transform="matrix(0.750000 0.000000 0.000000 0.750000 406.123504638672 531.1875)">Census Blocks in Buffer </text>
  <text x="70.8708572387695" y="66.3977661132813" dx="0" dy="0" font-family="Arial" font-size="8.76521746399272pt" fill="#000000" style="text-anchor:start" transform="matrix(0.750000 0.000000 0.000000 0.750000 406.123504638672 531.1875)">Region</text>
  <path d="M552.224365234375,564.276184082031 C552.224365234375,582.550537109375 519.5185546875,597.364868164063 479.173950195313,597.364868164063 C438.829315185547,597.364868164063 406.123504638672,582.550537109375 406.123504638672,564.276184082031 C406.123504638672,564.276184082031 406.123504638672,564.276184082031 406.123504638672,564.276184082031 L406.123474121094,564.276184082031 C406.123443603516,546.001831054688 438.829223632813,531.1875 479.173889160156,531.1875 C519.518493652344,531.187438964844 552.224304199219,546.001770019531 552.224365234375,564.276184082031 C552.224365234375,564.276184082031 552.224365234375,564.276184082031 552.224365234375,564.276184082031 " stroke="none" fill="none" stroke-width="0.626087" stroke-opacity="0" />
  <path d="M250.239791870117,1021.29272460938 L307.481903076172,1021.29272460938 L307.481872558594,1021.29272460938 C312.178466796875,1021.29266357422 315.98583984375,1025.09997558594 315.98583984375,1029.79663085938 C315.98583984375,1029.79663085938 315.98583984375,1029.79663085938 315.98583984375,1029.79663085938 L315.98583984375,1029.79663085938 L315.98583984375,1060.03869628906 L315.98583984375,1060.03869628906 C315.98583984375,1064.7353515625 312.178497314453,1068.54260253906 307.481903076172,1068.54260253906 L307.481903076172,1068.54272460938 L250.239791870117,1068.54272460938 L250.239791870117,1068.54260253906 C245.543197631836,1068.54272460938 241.735855102539,1064.7353515625 241.735855102539,1060.03869628906 L241.735855102539,1029.79663085938 L241.73583984375,1029.79663085938 C241.73583984375,1025.09997558594 245.543182373047,1021.29272460938 250.239776611328,1021.29266357422 " stroke="none" fill="#F2E279" fill-rule="evenodd" stroke-width="0" fill-opacity="1" />
  <text x="18.2991905212402" y="37.6795043945313" dx="0" dy="0" font-family="Arial" font-size="8.76521746399272pt" fill="#000000" style="text-anchor:start" transform="matrix(0.750000 0.000000 0.000000 0.750000 241.735855102539 1021.29272460938)">Add Join</text>
  <path d="M250.239791870117,1021.29272460938 L307.481903076172,1021.29272460938 L307.481872558594,1021.29272460938 C312.178466796875,1021.29266357422 315.98583984375,1025.09997558594 315.98583984375,1029.79663085938 C315.98583984375,1029.79663085938 315.98583984375,1029.79663085938 315.98583984375,1029.79663085938 L315.98583984375,1029.79663085938 L315.98583984375,1060.03869628906 L315.98583984375,1060.03869628906 C315.98583984375,1064.7353515625 312.178497314453,1068.54260253906 307.481903076172,1068.54260253906 L307.481903076172,1068.54272460938 L250.239791870117,1068.54272460938 L250.239791870117,1068.54260253906 C245.543197631836,1068.54272460938 241.735855102539,1064.7353515625 241.735855102539,1060.03869628906 L241.735855102539,1029.79663085938 L241.73583984375,1029.79663085938 C241.73583984375,1025.09997558594 245.543182373047,1021.29272460938 250.239776611328,1021.29266357422 " stroke="none" fill="none" stroke-width="0.626087" stroke-opacity="0" />
  <path d="M337.798919677734,1138.16467285156 C337.798919677734,1167.0888671875 311.411437988281,1190.53662109375 278.86083984375,1190.53662109375 C246.310256958008,1190.53662109375 219.922760009766,1167.08898925781 219.922760009766,1138.16467285156 C219.922760009766,1138.16467285156 219.922760009766,1138.16467285156 219.922760009766,1138.16467285156 L219.922744750977,1138.16467285156 C219.922729492188,1109.24047851563 246.310180664063,1085.79272460938 278.860778808594,1085.79272460938 C311.411407470703,1085.79260253906 337.798889160156,1109.24035644531 337.798919677734,1138.16467285156 C337.798919677734,1138.16467285156 337.798919677734,1138.16467285156 337.798919677734,1138.16467285156 " stroke="none" fill="#83CC7C" fill-rule="evenodd" stroke-width="0" fill-opacity="1" />
  <text x="13.2538557052612" y="66.8933258056641" dx="0" dy="0" font-family="Arial" font-size="13.7739131577028pt" fill="#000000" style="text-anchor:start" transform="matrix(0.750000 0.000000 0.000000 0.750000 219.922760009766 1085.79272460938)">Final Joined </text>
  <text x="12.2311887741089" y="92.1899871826172" dx="0" dy="0" font-family="Arial" font-size="13.7739131577028pt" fill="#000000" style="text-anchor:start" transform="matrix(0.750000 0.000000 0.000000 0.750000 219.922760009766 1085.79272460938)">Buffer Layer</text>
  <path d="M337.798919677734,1138.16467285156 C337.798919677734,1167.0888671875 311.411437988281,1190.53662109375 278.86083984375,1190.53662109375 C246.310256958008,1190.53662109375 219.922760009766,1167.08898925781 219.922760009766,1138.16467285156 C219.922760009766,1138.16467285156 219.922760009766,1138.16467285156 219.922760009766,1138.16467285156 L219.922744750977,1138.16467285156 C219.922729492188,1109.24047851563 246.310180664063,1085.79272460938 278.860778808594,1085.79272460938 C311.411407470703,1085.79260253906 337.798889160156,1109.24035644531 337.798919677734,1138.16467285156 C337.798919677734,1138.16467285156 337.798919677734,1138.16467285156 337.798919677734,1138.16467285156 " stroke="none" fill="none" stroke-width="0.626087" stroke-opacity="0" />
  <path d="M270.087982177734,34.8749923706055 C270.087982177734,47.9227180480957 253.466567993164,58.4999923706055 232.963012695313,58.4999961853027 C212.459442138672,58.5 195.838012695313,47.9227294921875 195.838012695313,34.875 C195.838012695313,34.875 195.838012695313,34.875 195.838012695313,34.875 L195.838012695313,34.8750152587891 C195.837982177734,21.8272914886475 212.459411621094,11.2500085830688 232.962966918945,11.25 C253.466537475586,11.2499895095825 270.087982177734,21.8272552490234 270.087982177734,34.875 C270.087982177734,34.875 270.087982177734,34.875 270.087982177734,34.875 " stroke="none" fill="#70AECC" fill-rule="evenodd" stroke-width="0" fill-opacity="1" />
  <text x="15.7058553695679" y="29.6295051574707" dx="0" dy="0" font-family="Arial" font-size="8.76521746399272pt" fill="#000000" style="text-anchor:start" transform="matrix(0.750000 0.000000 0.000000 0.750000 195.838012695313 11.25)">Buffers of </text>
  <text x="7.40818929672241" y="45.7295074462891" dx="0" dy="0" font-family="Arial" font-size="8.76521746399272pt" fill="#000000" style="text-anchor:start" transform="matrix(0.750000 0.000000 0.000000 0.750000 195.838012695313 11.25)">Town Center</text>
  <path d="M270.087982177734,34.8749923706055 C270.087982177734,47.9227180480957 253.466567993164,58.4999923706055 232.963012695313,58.4999961853027 C212.459442138672,58.5 195.838012695313,47.9227294921875 195.838012695313,34.875 C195.838012695313,34.875 195.838012695313,34.875 195.838012695313,34.875 L195.838012695313,34.8750152587891 C195.837982177734,21.8272914886475 212.459411621094,11.2500085830688 232.962966918945,11.25 C253.466537475586,11.2499895095825 270.087982177734,21.8272552490234 270.087982177734,34.875 C270.087982177734,34.875 270.087982177734,34.875 270.087982177734,34.875 " stroke="none" fill="none" stroke-width="0.626087" stroke-opacity="0" />
</svg>